<?xml version="1.0" encoding="iso-8859-1"?>
<!-- Generator: Adobe Illustrator 18.1.1, SVG Export Plug-In . SVG Version: 6.00 Build 0)  -->
<svg version="1.1" id="Capa_1" xmlns="http://www.w3.org/2000/svg" xmlns:xlink="http://www.w3.org/1999/xlink" x="0px" y="0px"
	 viewBox="0 0 14.702 14.702" xml:space="preserve">
<g>
	<g>
		<path  d="M12.361,10.226L9.408,6.595C9.325,6.53,9.246,6.438,9.123,6.358
			c-0.028-0.02-0.049-0.034-0.077-0.051c-0.1-0.069-0.218-0.134-0.331-0.179C8.351,5.979,8.028,5.931,7.624,5.913
			C7.038,5.891,6.615,6.128,6.232,6.424C6.167,6.475,6.103,6.535,6.043,6.595C5.904,6.734,5.854,6.8,5.736,6.926
			C5.713,6.948,5.713,6.957,5.693,6.977l-3.216,4.065c-0.039,0.083-0.293,0.537-0.293,0.854c0,0.491,0.023,0.722,0.211,1.161
			c0.051,0.123,0.128,0.247,0.2,0.353c0.137,0.197,0.165,0.194,0.25,0.303c0.074,0.095,0.189,0.18,0.289,0.254
			c0.077,0.06,0.165,0.117,0.251,0.163c0.013,0.005,0.027,0.014,0.041,0.022c0.14,0.07,0.298,0.139,0.46,0.165l0.5,0.054h0.156
			c0.528-0.022,1.349-0.265,1.816-0.393c0.122-0.035,0.253-0.063,0.384-0.095l0.849-0.105c0.417-0.025,1.192,0.143,1.614,0.265
			c0.479,0.143,1.055,0.303,1.551,0.328h0.26c0.484-0.025,0.935-0.2,1.299-0.501c0.471-0.386,0.767-0.858,0.857-1.479
			c0.121-0.838-0.205-1.362-0.7-2.021C12.433,10.318,12.401,10.275,12.361,10.226z"/>
		<path  d="M13.98,5.119c-0.721-0.311-1.703,0.609-2.077,1.472c-0.373,0.864-0.091,1.816,0.631,2.129
			c0.721,0.312,1.607-0.136,1.98-0.999C14.888,6.857,14.701,5.432,13.98,5.119z"/>
		<path  d="M9.642,5.357c0.951,0.203,1.918-0.556,2.161-1.693c0.243-1.138-0.331-2.821-1.281-3.024
			c-0.95-0.202-1.916,1.151-2.158,2.289C8.12,4.067,8.692,5.155,9.642,5.357z"/>
		<path  d="M5.426,5.416c1.031-0.082,1.788-1.15,1.689-2.385C7.017,1.795,5.922,0.252,4.889,0.334
			C3.858,0.417,3.284,2.092,3.382,3.327C3.479,4.563,4.395,5.498,5.426,5.416z"/>
		<path  d="M3.296,6.46C3.029,5.403,1.851,4.227,0.969,4.45C0.087,4.674-0.166,6.211,0.101,7.267
			C0.369,8.324,1.3,9,2.183,8.777C3.065,8.553,3.564,7.516,3.296,6.46z"/>
	</g>
</g>
<g>
</g>
<g>
</g>
<g>
</g>
<g>
</g>
<g>
</g>
<g>
</g>
<g>
</g>
<g>
</g>
<g>
</g>
<g>
</g>
<g>
</g>
<g>
</g>
<g>
</g>
<g>
</g>
<g>
</g>
</svg>
