<?xml version="1.0"?>
<svg xmlns="http://www.w3.org/2000/svg" viewBox="0 0 50 50">
    <path d="M 32.84375 1.96875 A 1.0001 1.0001 0 0 0 32.28125 2.28125 L 28.0625 6.5 L 24.78125 2.375 A 1.0001 1.0001 0 0 0 23.90625 2 A 1.0001 1.0001 0 0 0 23.15625 2.5 L 20.65625 6.65625 L 14.5 3.125 A 1.0001 1.0001 0 0 0 13 4.15625 L 13.78125 8.8125 L 8.15625 8 A 1.0001 1.0001 0 0 0 7.15625 9.5 L 9.59375 13.5625 L 4.5625 16.09375 A 1.0001 1.0001 0 0 0 4.8125 17.96875 L 8.625 18.71875 L 7.0625 22.625 A 1.0001 1.0001 0 0 0 8.5 23.875 L 9 23.59375 L 9 26.09375 A 1.0001 1.0001 0 0 0 9.03125 26.28125 C 9.155766 26.90383 9.5507245 27.480416 10.125 27.78125 C 9.9557432 27.915519 9.7630068 28.086824 9.59375 28.3125 C 9.09375 29.0125 8.80625 30.1125 8.90625 31.3125 C 9.30625 34.9125 11.6125 36.2 12.3125 36.5 C 12.6125 38.2 13.40625 40.2125 14.90625 42.3125 C 16.40625 44.6125 23.40625 47.90625 24.90625 47.90625 C 26.40625 47.90625 33.40625 44.5125 34.90625 42.3125 C 36.30625 40.2125 37.10625 38.1 37.40625 36.5 C 38.10625 36.2 40.40625 34.9125 40.90625 31.3125 C 41.00625 30.1125 40.6875 29.0125 40.1875 28.3125 C 40.0375 28.1125 39.9 27.9375 39.75 27.8125 C 40.385774 27.53216 40.836113 26.944433 40.96875 26.28125 A 1.0001 1.0001 0 0 0 41 26.09375 L 41 24.03125 A 1.0001 1.0001 0 0 0 41.9375 22.625 L 40.3125 18.5625 L 44.375 16.9375 A 1.0001 1.0001 0 0 0 44.4375 15.09375 L 39.34375 12.53125 L 41.8125 7.4375 A 1.0001 1.0001 0 0 0 40.625 6.03125 L 34.8125 7.71875 L 34 2.84375 A 1.0001 1.0001 0 0 0 32.84375 1.96875 z M 24.09375 4.71875 L 27.21875 8.625 A 1.0001 1.0001 0 0 0 28.71875 8.71875 L 32.3125 5.125 L 33 9.15625 A 1.0001 1.0001 0 0 0 34.28125 9.96875 L 39 8.59375 L 37.09375 12.5625 A 1.0001 1.0001 0 0 0 37.5625 13.90625 L 41.53125 15.90625 L 38.625 17.0625 A 1.0001 1.0001 0 0 0 38.0625 18.375 L 39 20.6875 L 34.5 18.125 A 1.0001 1.0001 0 0 0 34 18 L 31 18 L 19 18 L 15 18 A 1.0001 1.0001 0 0 0 14.5 18.125 L 10 20.6875 L 10.9375 18.375 A 1.0001 1.0001 0 0 0 10.1875 17.03125 L 8.03125 16.59375 L 11.4375 14.90625 A 1.0001 1.0001 0 0 0 11.84375 13.5 L 9.9375 10.3125 L 14.84375 11 A 1.0001 1.0001 0 0 0 16 9.84375 L 15.34375 5.9375 L 20.5 8.875 A 1.0001 1.0001 0 0 0 21.84375 8.5 L 24.09375 4.71875 z M 15.28125 20 L 15.5625 20 C 15.221057 20.58909 15 21.26985 15 22 L 15 24 C 15 24.73015 15.221057 25.41091 15.5625 26 L 11 26 L 11 22.4375 L 15.28125 20 z M 19 20 L 31 20 C 32.190196 20 33 20.809804 33 22 L 33 24 C 33 25.190196 32.190196 26 31 26 L 19 26 C 17.809804 26 17 25.190196 17 24 L 17 22 C 17 20.809804 17.809804 20 19 20 z M 34.71875 20.59375 L 39 23.03125 L 39 26 L 34.4375 26 C 34.778943 25.41091 35 24.73015 35 24 L 35 22 C 35 21.503678 34.883835 21.032209 34.71875 20.59375 z M 12.65625 28 L 19 28 L 31 28 L 37.3125 28 C 37.371737 28.223885 37.477885 28.436538 37.6875 28.59375 C 37.8875 28.69375 38.3 29.00625 38.5 29.40625 C 38.8 29.80625 39.00625 30.29375 38.90625 31.09375 C 38.50625 34.29375 36.3125 34.90625 36.3125 34.90625 C 36.065309 34.968048 35.899283 35.147216 35.78125 35.34375 C 35.332932 35.081527 34.834214 34.871423 34.34375 34.6875 C 33.275342 34.286847 32.25 34.03125 32.25 34.03125 A 1.0001 1.0001 0 0 0 31.84375 34 A 1.0001 1.0001 0 0 0 31.75 35.96875 C 31.75 35.96875 32.724658 36.213153 33.65625 36.5625 C 34.122046 36.737174 34.570383 36.954145 34.84375 37.125 C 34.948182 37.19027 34.996171 37.21872 35.03125 37.25 A 1.0001 1.0001 0 0 0 35.125 37.46875 C 34.914574 38.030894 34.638926 38.631086 34.3125 39.28125 C 33.949989 38.828111 33.511417 38.43825 33.09375 38.125 C 32.258417 37.4985 31.4375 37.09375 31.4375 37.09375 A 1.0001 1.0001 0 0 0 30.875 37 A 1.0001 1.0001 0 0 0 30.78125 37 A 1.0001 1.0001 0 0 0 30.5625 38.90625 C 30.5625 38.90625 31.241583 39.2515 31.90625 39.75 C 32.238583 39.99925 32.550011 40.281264 32.75 40.53125 C 32.949989 40.781236 33 40.958333 33 41 A 1.0001 1.0001 0 0 0 33.09375 41.40625 C 32.746288 41.842981 32.244833 42.278525 31.65625 42.71875 C 31.411544 42.249605 31.086617 41.842824 30.78125 41.46875 C 30.234887 40.799456 29.6875 40.28125 29.6875 40.28125 A 1.0001 1.0001 0 0 0 28.875 39.96875 A 1.0001 1.0001 0 0 0 28.75 40 A 1.0001 1.0001 0 0 0 28.3125 41.71875 C 28.3125 41.71875 28.765113 42.163044 29.21875 42.71875 C 29.582908 43.164844 29.808797 43.656697 29.90625 43.84375 C 27.84413 45.056757 25.586859 46 25 46 C 24.411252 46 22.129868 45.073327 20.0625 43.875 C 20.142751 43.728041 20.396283 43.190335 20.78125 42.71875 C 21.234887 42.163044 21.6875 41.71875 21.6875 41.71875 A 1.0001 1.0001 0 0 0 20.90625 39.96875 A 1.0001 1.0001 0 0 0 20.8125 40 A 1.0001 1.0001 0 0 0 20.3125 40.28125 C 20.3125 40.28125 19.765113 40.799456 19.21875 41.46875 C 18.905533 41.85244 18.558127 42.264335 18.3125 42.75 C 17.737257 42.327875 17.246556 41.880564 16.90625 41.46875 A 1.0001 1.0001 0 0 0 17 41 C 17 40.95833 17.05001 40.781236 17.25 40.53125 C 17.449989 40.281264 17.761417 39.99925 18.09375 39.75 C 18.758417 39.2515 19.4375 38.90625 19.4375 38.90625 A 1.0030471 1.0030471 0 0 0 19.0625 36.9375 A 1.0030471 1.0030471 0 0 0 18.8125 37 A 1.0001 1.0001 0 0 0 18.5625 37.09375 C 18.5625 37.09375 17.741583 37.4985 16.90625 38.125 C 16.488583 38.43825 16.050011 38.828111 15.6875 39.28125 C 15.664843 39.309571 15.647294 39.345854 15.625 39.375 C 15.28999 38.738819 15.026153 38.146532 14.8125 37.59375 A 1.0001 1.0001 0 0 0 14.96875 37.25 C 15.00383 37.21872 15.05182 37.19027 15.15625 37.125 C 15.429617 36.954145 15.877954 36.737174 16.34375 36.5625 C 17.275342 36.213153 18.25 35.96875 18.25 35.96875 A 1.0098393 1.0098393 0 1 0 17.96875 33.96875 A 1.0083877 1.0083877 0 0 0 17.8125 34 A 1.0001 1.0001 0 0 0 17.75 34.03125 C 17.75 34.03125 16.724658 34.286847 15.65625 34.6875 C 15.143916 34.879625 14.619113 35.095284 14.15625 35.375 C 14.03121 35.194717 13.831952 35.059551 13.59375 35 C 13.59375 35 11.4 34.29375 11 31.09375 C 10.9 30.29375 11.10625 29.80625 11.40625 29.40625 C 11.70625 29.00625 11.9875 28.69375 12.1875 28.59375 C 12.4243 28.47535 12.601131 28.266436 12.65625 28 z M 19.5 29 C 18.671573 29 18 29.671573 18 30.5 C 18 31.328427 18.671573 32 19.5 32 C 20.328427 32 21 31.328427 21 30.5 C 21 29.671573 20.328427 29 19.5 29 z M 30.5 29 C 29.671573 29 29 29.671573 29 30.5 C 29 31.328427 29.671573 32 30.5 32 C 31.328427 32 32 31.328427 32 30.5 C 32 29.671573 31.328427 29 30.5 29 z"/>
</svg>
