<svg height="480pt" viewBox="0 0 480.00958 480" width="480pt" xmlns="http://www.w3.org/2000/svg"><path d="m128 104.003906v-32c0-4.417968-3.582031-8-8-8h-112c-4.417969 0-8 3.582032-8 8v32zm0 0"/><path d="m0 120.003906v264h128v-264zm96 104h-64c-4.417969 0-8-3.582031-8-8v-64c0-4.417968 3.582031-8 8-8h64c4.417969 0 8 3.582032 8 8v64c0 4.417969-3.582031 8-8 8zm0 0"/><path d="m0 432.003906v40c0 4.417969 3.582031 8 8 8h112c4.417969 0 8-3.582031 8-8v-40zm0 0"/><path d="m0 400.003906h128v16h-128zm0 0"/><path d="m144 400.003906h104v16h-104zm0 0"/><path d="m248 32.003906v-24c0-4.417968-3.582031-7.99999975-8-7.99999975h-88c-4.417969 0-8 3.58203175-8 7.99999975v24zm0 0"/><path d="m144 88.003906h104v296h-104zm0 0"/><path d="m144 432.003906v40c0 4.417969 3.582031 8 8 8h88c4.417969 0 8-3.582031 8-8v-40zm0 0"/><path d="m144 48.003906h104v24h-104zm0 0"/><path d="m263.808594 165.667969 4.28125 16.433593 135.484375-36.128906-4.285157-16.433594zm0 0"/><path d="m330.664062 421.949219 135.480469-36.128907-8.578125-32.886718-135.488281 36.128906zm0 0"/><path d="m453.527344 337.453125-45.910156-176-135.488282 36.128906 45.910156 176zm0 0"/><path d="m259.769531 150.1875 135.476563-36.125-11.484375-44.058594c-1.183594-4.265625-5.542969-6.816406-9.839844-5.757812l-120 32c-4.238281 1.160156-6.765625 5.5-5.683594 9.757812zm0 0"/><path d="m470.183594 401.300781-135.488282 36.128907 9.542969 36.574218c.554688 2.0625 1.90625 3.820313 3.761719 4.882813 1.207031.730469 2.589844 1.117187 4 1.117187.699219 0 1.398438-.082031 2.078125-.238281l120-32c4.238281-1.160156 6.765625-5.503906 5.683594-9.761719zm0 0"/></svg>