<?xml version="1.0" encoding="iso-8859-1"?>
<!-- Generator: Adobe Illustrator 21.0.0, SVG Export Plug-In . SVG Version: 6.00 Build 0)  -->
<svg xmlns="http://www.w3.org/2000/svg" xmlns:xlink="http://www.w3.org/1999/xlink" version="1.1" id="Capa_1" x="0px" y="0px" viewBox="0 0 512 512" style="enable-background:new 0 0 512 512;" xml:space="preserve" width="512" height="512">
<g>
	<path d="M492.913,214.481l-30-51.962c-1.989-3.445-5.266-5.959-9.108-6.989c-3.842-1.029-7.936-0.491-11.383,1.499l-22.163,12.797   c-4.543-3.143-9.306-5.908-14.259-8.28V136c0-8.284-6.716-15-15-15h-60c-8.284,0-15,6.716-15,15v25.546   c-4.953,2.372-9.716,5.137-14.259,8.28c-13.076-7.197-32.948-18.135-46.141-25.397c0.268-2.901,0.4-5.699,0.4-8.429   s-0.132-5.528-0.4-8.429l21.823-12.6c7.175-4.142,9.633-13.316,5.491-20.49l-30.001-51.962c-1.989-3.445-5.265-5.959-9.108-6.989   c-3.842-1.03-7.938-0.491-11.382,1.499l-22.164,12.797c-4.543-3.143-9.306-5.908-14.259-8.28V15c0-8.284-6.716-15-15-15h-60   c-8.284,0-15,6.716-15,15v26.546c-4.953,2.372-9.715,5.137-14.259,8.28L69.577,37.029c-3.445-1.989-7.541-2.529-11.382-1.499   c-3.843,1.029-7.12,3.543-9.108,6.989l-30,51.962c-4.142,7.174-1.684,16.348,5.49,20.49l21.823,12.6   C46.132,130.472,46,133.27,46,136s0.132,5.528,0.4,8.429l-21.823,12.599c-3.445,1.989-5.959,5.266-6.989,9.108   s-0.491,7.937,1.499,11.382l30,51.962c1.989,3.445,5.265,5.959,9.108,6.989c3.841,1.03,7.937,0.491,11.382-1.499l22.164-12.798   c4.543,3.143,9.305,5.907,14.259,8.279c0,16.233,0,34.861,0,51.094c-4.953,2.372-9.715,5.137-14.259,8.28l-22.164-12.797   c-3.445-1.989-7.541-2.529-11.382-1.499c-3.843,1.029-7.12,3.543-9.108,6.989l-30,51.962c-4.142,7.174-1.684,16.348,5.49,20.49   l21.823,12.6C46.132,370.472,46,373.27,46,376s0.132,5.528,0.4,8.429l-21.823,12.599c-3.445,1.989-5.959,5.266-6.989,9.108   s-0.491,7.937,1.499,11.382l30,51.962c1.989,3.445,5.265,5.959,9.108,6.989c3.841,1.029,7.937,0.491,11.382-1.499l22.164-12.798   c4.543,3.143,9.305,5.907,14.259,8.279V497c0,8.284,6.716,15,15,15h60c8.284,0,15-6.716,15-15v-26.546   c4.954-2.372,9.715-5.137,14.259-8.28l22.164,12.797c3.444,1.989,7.539,2.528,11.382,1.499c3.843-1.029,7.12-3.543,9.108-6.989   l30.001-51.962c1.989-3.445,2.527-7.54,1.498-11.382s-3.544-7.119-6.989-9.108L255.6,384.429c0.268-2.901,0.4-5.699,0.4-8.429   s-0.132-5.528-0.4-8.429c13.19-7.26,33.066-18.2,46.141-25.397c4.544,3.143,9.305,5.907,14.259,8.279V376c0,8.284,6.716,15,15,15   h60c8.284,0,15-6.716,15-15v-25.546c4.954-2.372,9.715-5.137,14.259-8.28l22.163,12.797c3.446,1.989,7.543,2.527,11.383,1.499   c3.843-1.029,7.119-3.543,9.108-6.989l30-51.962c1.989-3.445,2.528-7.54,1.499-11.382c-1.03-3.843-3.544-7.119-6.989-9.108   l-21.822-12.599c0.268-2.901,0.399-5.699,0.399-8.43s-0.132-5.529-0.399-8.429l21.822-12.6   C494.598,230.829,497.056,221.655,492.913,214.481z M256.4,264.429c-13.205,7.268-33.053,18.193-46.141,25.397   c-4.543-3.143-9.306-5.908-14.259-8.28c0-16.233,0-34.86,0-51.093c4.954-2.372,9.715-5.137,14.259-8.28   c12.866,7.082,33.114,18.226,46.141,25.397c-0.268,2.901-0.4,5.699-0.4,8.429S256.132,261.528,256.4,264.429z M102.653,192.763   c-4.831-4.123-11.737-4.754-17.237-1.58l-17.85,10.307l-15-25.98l17.586-10.153c5.501-3.176,8.405-9.473,7.25-15.72   C76.446,144.464,76,140.13,76,136s0.446-8.463,1.403-13.637c1.156-6.246-1.748-12.543-7.25-15.719L52.567,96.491l15-25.981   l17.85,10.307c5.5,3.175,12.405,2.542,17.237-1.58c7.004-5.976,14.872-10.545,23.384-13.58c5.974-2.13,9.963-7.787,9.963-14.129V30   h30v21.528c0,6.342,3.989,11.999,9.962,14.129c8.513,3.035,16.38,7.604,23.384,13.58c4.832,4.123,11.737,4.754,17.237,1.58   l17.85-10.307l15,25.981l-17.586,10.153c-5.501,3.176-8.405,9.473-7.25,15.719C225.554,127.537,226,131.87,226,136   s-0.446,8.464-1.403,13.637c-1.156,6.247,1.749,12.543,7.25,15.72l17.586,10.153l-15,25.98l-17.85-10.307   c-5.502-3.176-12.406-2.543-17.237,1.58c-7.004,5.977-14.872,10.546-23.383,13.58c-5.975,2.129-9.963,7.787-9.963,14.129V241h-30   v-20.53c0-6.342-3.989-12-9.963-14.129C117.523,203.306,109.656,198.738,102.653,192.763z M224.597,362.363   C225.554,367.537,226,371.87,226,376s-0.446,8.464-1.403,13.637c-1.156,6.247,1.749,12.543,7.25,15.72l17.586,10.153l-15,25.98   l-17.85-10.307c-5.502-3.176-12.406-2.543-17.237,1.58c-7.004,5.977-14.872,10.546-23.383,13.58   c-5.975,2.129-9.963,7.787-9.963,14.129V482h-30v-21.53c0-6.342-3.989-12-9.963-14.129c-8.514-3.035-16.381-7.604-23.383-13.578   c-4.831-4.123-11.737-4.754-17.237-1.58l-17.85,10.307l-15-25.98l17.586-10.153c5.501-3.176,8.405-9.473,7.25-15.72   C76.446,384.464,76,380.13,76,376s0.446-8.463,1.403-13.637c1.156-6.246-1.748-12.543-7.25-15.719l-17.586-10.153l15-25.981   l17.85,10.307c5.5,3.175,12.405,2.542,17.237-1.58c7.004-5.976,14.872-10.545,23.384-13.58c5.974-2.13,9.963-7.787,9.963-14.129   V271h30v20.528c0,6.342,3.989,11.999,9.962,14.129c8.513,3.035,16.38,7.604,23.384,13.58c4.832,4.123,11.737,4.754,17.237,1.58   l17.85-10.307l15,25.981l-17.586,10.153C226.345,349.82,223.441,356.117,224.597,362.363z M434.598,242.365   C435.555,247.534,436,251.867,436,256s-0.445,8.466-1.402,13.636c-1.156,6.247,1.747,12.544,7.249,15.72l17.586,10.153l-15,25.98   l-17.849-10.307c-5.502-3.176-12.406-2.544-17.237,1.58c-7.005,5.977-14.872,10.546-23.384,13.58   c-5.974,2.129-9.963,7.787-9.963,14.129V361h-30v-20.53c0-6.342-3.989-12-9.963-14.129c-8.515-3.035-16.382-7.604-23.384-13.578   c-4.831-4.124-11.737-4.755-17.236-1.58l-19.465,11.239l-15-25.98l19.201-11.086c5.501-3.176,8.405-9.473,7.25-15.719   C286.446,264.464,286,260.13,286,256s0.445-8.463,1.403-13.637c1.155-6.246-1.749-12.543-7.25-15.719l-19.201-11.086l15-25.98   l19.465,11.239c5.5,3.175,12.405,2.542,17.236-1.58c7.004-5.976,14.871-10.545,23.384-13.58c5.975-2.13,9.963-7.787,9.963-14.129   V151h30v20.528c0,6.342,3.988,11.999,9.963,14.129c8.513,3.035,16.38,7.604,23.384,13.58c4.831,4.123,11.735,4.755,17.237,1.58   l17.849-10.307l15,25.981l-17.586,10.153C436.345,229.82,433.441,236.118,434.598,242.365z"/>
	<path d="M146.607,176.606l60-60c5.858-5.858,5.858-15.355,0-21.213c-5.857-5.858-15.355-5.858-21.213,0L136,144.787l-19.394-19.393   c-5.857-5.858-15.355-5.858-21.213,0c-5.858,5.858-5.858,15.355,0,21.213l30,30C128.322,179.536,132.161,181,136,181   S143.678,179.536,146.607,176.606z"/>
	<path d="M185.394,335.394L136,384.787l-19.394-19.393c-5.857-5.858-15.355-5.858-21.213,0c-5.858,5.858-5.858,15.355,0,21.213   l30,30C128.322,419.536,132.161,421,136,421s7.678-1.464,10.606-4.394l60-60c5.858-5.858,5.858-15.355,0-21.213   C200.749,329.535,191.251,329.535,185.394,335.394z"/>
	<path d="M395.394,215.394L346,264.787l-19.394-19.393c-5.857-5.858-15.355-5.858-21.213,0c-5.858,5.858-5.858,15.355,0,21.213   l30,30C338.322,299.536,342.161,301,346,301s7.678-1.464,10.606-4.394l60-60c5.858-5.858,5.858-15.355,0-21.213   C410.749,209.535,401.251,209.535,395.394,215.394z"/>
</g>















</svg>
