<svg id="Capa_1" enable-background="new 0 0 512 512" height="512" viewBox="0 0 512 512" width="512" xmlns="http://www.w3.org/2000/svg"><g><path d="m286.333 263.594-56.874.012v71.413h56.873c19.688 0 35.707-16.021 35.707-35.712.001-9.485-3.728-18.438-10.5-25.211s-15.725-10.503-25.206-10.502z"/><path d="m306.641 205.293c.001-7.516-2.957-14.612-8.328-19.983s-12.467-8.329-19.981-8.328h-48.872v56.612h49.333c15.396-.249 27.848-12.844 27.848-28.301z"/><path d="m256 84c-94.841 0-172 77.159-172 172s77.159 172 172 172 172-77.159 172-172-77.159-172-172-172zm30.332 281.019h-15.332v28.981h-30v-28.981h-66.039v-30h24.498v-158.038h-24.498v-30h66.039v-28.981h30v28.981h7.33c15.527-.001 30.158 6.077 41.196 17.115 11.037 11.038 17.115 25.669 17.114 41.197 0 14.874-5.606 28.458-14.805 38.77 3.892 2.52 7.557 5.458 10.917 8.82 12.439 12.44 19.288 28.927 19.286 46.425.001 36.233-29.475 65.711-65.706 65.711z"/><path d="m437.02 74.98c-48.353-48.351-112.64-74.98-181.02-74.98s-132.667 26.629-181.02 74.98c-48.351 48.353-74.98 112.64-74.98 181.02s26.629 132.667 74.98 181.02c48.353 48.351 112.64 74.98 181.02 74.98s132.667-26.629 181.02-74.98c48.351-48.353 74.98-112.64 74.98-181.02s-26.629-132.667-74.98-181.02zm-181.02 383.02c-111.383 0-202-90.617-202-202s90.617-202 202-202 202 90.617 202 202-90.617 202-202 202z"/></g></svg>