<svg height="512" viewBox="0 0 64 64" width="512" xmlns="http://www.w3.org/2000/svg"><g id="Money-4" data-name="Money"><path d="m14 56.38 2.18 1.09a4.956 4.956 0 0 0 2.24.53h14.97a4.982 4.982 0 0 0 2.5-.67l16.8-9.7a2 2 0 0 0 .72-2.73 2.025 2.025 0 0 0 -2.72-.73l-10.07 5.81a4.118 4.118 0 0 1 -.11 1.35 3.975 3.975 0 0 1 -1.87 2.43 3.916 3.916 0 0 1 -1.99.54 4.072 4.072 0 0 1 -1.04-.14l-11.93-3.19a1 1 0 0 1 .52-1.94l11.93 3.2a1.95 1.95 0 0 0 1.51-.2 1.991 1.991 0 0 0 -.48-3.66l-14.92-4a4.964 4.964 0 0 0 -2.51-.02l-5.73 1.43z"/><path d="m10 44h2v14h-2z"/><path d="m4 42h4v18h-4z"/><path d="m31.63 22h-.97a3.595 3.595 0 0 1 -3.21-1.87 9.025 9.025 0 1 0 4.18 1.87zm-6.63 6h2a3 3 0 0 1 0 6v1a1 1 0 0 1 -2 0v-1a3 3 0 0 1 -3-3 1 1 0 0 1 2 0 1 1 0 0 0 1 1h2a1 1 0 0 0 0-2h-2a3 3 0 0 1 0-6v-1a1 1 0 0 1 2 0v1a3 3 0 0 1 3 3 1 1 0 0 1 -2 0 1 1 0 0 0 -1-1h-2a1 1 0 0 0 0 2z"/><path d="m56 8h4v18h-4z"/><path d="m52 10h2v14h-2z"/><path d="m50 23v-11.38l-2.18-1.1a5.177 5.177 0 0 0 -2.24-.52h-14.97a5.009 5.009 0 0 0 -2.5.67l-16.8 9.7a2 2 0 0 0 -.72 2.73 2.025 2.025 0 0 0 2.72.73l5.61-3.24a10.994 10.994 0 0 1 7.08-2.59c.35 0 .69.02 1.04.05a3.455 3.455 0 0 1 3.46-3.05h9.5a1 1 0 0 1 0 2h-9.5a1.508 1.508 0 0 0 -1.5 1.41 1.383 1.383 0 0 0 .4 1.04 1.743 1.743 0 0 0 1.26.55h5.34a.99.99 0 0 1 .86.49l1.25 2.08a5.023 5.023 0 0 0 4.29 2.43h1.11a4.976 4.976 0 0 0 3.54-1.46l.24-.25a1.033 1.033 0 0 1 .71-.29z"/></g></svg>