<?xml version="1.0" encoding="iso-8859-1"?>
<!-- Generator: Adobe Illustrator 19.0.0, SVG Export Plug-In . SVG Version: 6.00 Build 0)  -->
<svg version="1.1"  xmlns="http://www.w3.org/2000/svg" xmlns:xlink="http://www.w3.org/1999/xlink" x="0px" y="0px"
	 viewBox="0 0 512 512" style="enable-background:new 0 0 512 512;" xml:space="preserve">
<g>
	<g>
		<path d="M499.016,288.601c-19.596,46.398-65.562,79.043-119.011,79.043c-71.196,0-129.118-57.922-129.118-129.119
			c0-52.544,31.552-97.852,76.701-117.988c-9.428-10.81-20.365-20.312-32.558-28.187c-24.797-16.017-53.572-24.483-83.214-24.483
			c-84.682,0-153.575,68.894-153.575,153.575c0,4.347,0.186,8.714,0.555,13.064C22.734,253.759,0,291.165,0,332.733
			c0,61.426,49.974,111.4,111.4,111.4h289.2c30.125,0,57.731-9.121,77.731-25.681C500.358,400.214,512,374.723,512,344.734
			C512,326.015,507.445,306.589,499.016,288.601z"/>
	</g>
</g>
<g>
	<g>
		<path d="M380.005,139.408c-54.654,0-99.118,44.464-99.118,99.118s44.464,99.119,99.118,99.119
			c54.654,0,99.118-44.464,99.118-99.119C479.123,183.872,434.659,139.408,380.005,139.408z M421.887,234.766l-43.542,34.14
			c-2.743,2.15-6.005,3.196-9.246,3.196c-4.329,0-8.619-1.865-11.581-5.456l-15.321-18.576c-5.271-6.391-4.363-15.845,2.027-21.116
			s15.844-4.364,21.116,2.027l6.01,7.287l32.027-25.11c6.519-5.111,15.948-3.971,21.059,2.549
			C429.548,220.226,428.406,229.655,421.887,234.766z"/>
	</g>
</g>
<g>
</g>
<g>
</g>
<g>
</g>
<g>
</g>
<g>
</g>
<g>
</g>
<g>
</g>
<g>
</g>
<g>
</g>
<g>
</g>
<g>
</g>
<g>
</g>
<g>
</g>
<g>
</g>
<g>
</g>
</svg>
