<?xml version="1.0" encoding="iso-8859-1"?>
<!-- Generator: Adobe Illustrator 16.0.0, SVG Export Plug-In . SVG Version: 6.00 Build 0)  -->
<!DOCTYPE svg PUBLIC "-//W3C//DTD SVG 1.1//EN" "http://www.w3.org/Graphics/SVG/1.1/DTD/svg11.dtd">
<svg version="1.1" id="Capa_1" xmlns="http://www.w3.org/2000/svg" xmlns:xlink="http://www.w3.org/1999/xlink" x="0px" y="0px"
	 width="424.652px" height="424.652px" viewBox="0 0 424.652 424.652" style="enable-background:new 0 0 424.652 424.652;"
	 xml:space="preserve">
<g>
	<g>
		<path d="M240.961,228.622c-5.886,0-11.187,4.531-12.605,10.774l-0.018,21.234c1.506,6.174,6.576,10.309,12.623,10.309
			c9.786,0,15.399-7.778,15.399-21.34C256.36,244.68,255.25,228.622,240.961,228.622z"/>
		<polygon points="117.776,238.902 135.305,238.902 126.256,207.463 		"/>
		<path d="M72.057,0L35.14,54.272l-0.031,342.279l0.031,0.003v28.099h298.486v-0.38l0.924,0.086l54.993-42.067V0H72.057z
			 M150.698,297.559l-9.359-31.139h-29.475l-8.64,31.139h-35.83l39.219-128.313h41.167l39.789,128.313H150.698z M277.692,286.576
			c-7.979,8.359-18.724,12.963-30.251,12.963c-9.762,0-17.941-3.107-24.069-9.072l-0.625,7.092h-29.249l0.045-134.795h34.359v45.275
			c6.101-4.868,14.18-7.476,23.498-7.476c10.31,0,19.504,3.77,26.588,10.901c8.659,8.716,13.372,21.886,13.271,37.082
			C291.26,264.118,286.568,277.277,277.692,286.576z M359.543,367.469l-25.917,19.825V54.272H71.592L87.993,30h271.55V367.469
			L359.543,367.469z"/>
	</g>
</g>
<g>
</g>
<g>
</g>
<g>
</g>
<g>
</g>
<g>
</g>
<g>
</g>
<g>
</g>
<g>
</g>
<g>
</g>
<g>
</g>
<g>
</g>
<g>
</g>
<g>
</g>
<g>
</g>
<g>
</g>
</svg>
