<svg height="512pt" viewBox="-1 0 512 512" width="512pt" xmlns="http://www.w3.org/2000/svg"><path d="m135 331h81.53125c3.042969-10.464844 7.097656-20.5 12.046875-30h-93.578125c-8.285156 0-15-6.714844-15-15s6.714844-15 15-15h113.660156c9.597656-11.417969 20.707032-21.523438 33.023438-30h-146.683594c-8.285156 0-15-6.714844-15-15s6.714844-15 15-15h150c10.078125 0 17.292969 9.757812 14.34375 19.398438 18.46875-9.570313 38.960938-15.746094 60.65625-17.710938v-177.6875c0-19.300781-15.699219-35-35-35h-290c-19.300781 0-35 15.699219-35 35v381c0 19.300781 15.699219 35 35 35h192.554688c-13.976563-27.730469-19.796876-58.773438-16.777344-90h-75.777344c-8.285156 0-15-6.714844-15-15s6.714844-15 15-15zm0-240h150c8.285156 0 15 6.714844 15 15s-6.714844 15-15 15h-150c-8.285156 0-15-6.714844-15-15s6.714844-15 15-15zm0 60h150c8.285156 0 15 6.714844 15 15s-6.714844 15-15 15h-150c-8.285156 0-15-6.714844-15-15s6.714844-15 15-15zm-60 210c-8.285156 0-15-6.714844-15-15s6.714844-15 15-15 15 6.714844 15 15-6.714844 15-15 15zm0-60c-8.285156 0-15-6.714844-15-15s6.714844-15 15-15 15 6.714844 15 15-6.714844 15-15 15zm0-60c-8.285156 0-15-6.714844-15-15s6.714844-15 15-15 15 6.714844 15 15-6.714844 15-15 15zm0-60c-8.285156 0-15-6.714844-15-15s6.714844-15 15-15 15 6.714844 15 15-6.714844 15-15 15zm0-60c-8.285156 0-15-6.714844-15-15s6.714844-15 15-15 15 6.714844 15 15-6.714844 15-15 15zm0 0"/><path d="m375 242c-74.4375 0-135 60.5625-135 135s60.5625 135 135 135 135-60.5625 135-135-60.5625-135-135-135zm15 134c0 8.285156-6.714844 15-15 15h-45c-8.285156 0-15-6.714844-15-15s6.714844-15 15-15h30v-45c0-8.285156 6.714844-15 15-15s15 6.714844 15 15zm0 0"/></svg>