<svg id="Layer_1" enable-background="new 0 0 511.998 511.998" height="512" viewBox="0 0 511.998 511.998" width="512" xmlns="http://www.w3.org/2000/svg"><path d="m347.739 215.04c14.33 2.744 28.508-5.42 33.329-19.191l25.155-71.858c2.23-6.37-4.662-12.081-10.507-8.706l-18.835 10.874-49.656-86.009c-6.121-10.601-17.432-17.132-29.673-17.132h-76.423c-12.241 0-23.553 6.531-29.673 17.132l-53.294 92.308c-4.691 8.125-1.907 18.515 6.218 23.207l57.612 33.262c8.127 4.692 18.519 1.906 23.209-6.222l34.126-59.147 30.515 52.854-18.895 10.909c-5.838 3.371-4.351 12.181 2.27 13.449z"/><path d="m507.537 375.28c6.041-10.648 5.941-23.711-.262-34.266l-53.978-91.854c-4.751-8.09-15.161-10.797-23.252-6.046l-57.364 33.688c-8.092 4.752-10.798 15.165-6.043 23.256l34.597 58.873-61.029.452-.162-21.818c-.05-6.741-8.447-9.796-12.817-4.664l-49.193 57.77c-9.459 11.109-9.357 27.469.24 38.459l50.079 57.345c4.44 5.084 12.808 1.909 12.758-4.841l-.161-21.748 99.308-.736c12.243-.091 23.508-6.707 29.549-17.357z"/><path d="m179.056 359.765-68.285-.277 30.745-52.721 18.847 10.991c5.823 3.396 12.735-2.268 10.55-8.645l-24.592-71.781c-4.729-13.803-18.852-22.061-33.2-19.413l-74.869 13.818c-6.637 1.225-8.176 10.042-2.345 13.442l18.787 10.956-50.029 85.788c-6.168 10.577-6.223 23.641-.146 34.269l37.96 66.384c6.077 10.628 17.363 17.205 29.605 17.255l106.539.433c9.383.041 17.021-7.532 17.062-16.914l.289-66.524c.042-9.384-7.534-17.023-16.918-17.061z"/></svg>