<svg  enable-background="new 0 0 512 512" height="512" viewBox="0 0 512 512" width="512" xmlns="http://www.w3.org/2000/svg"><g><path d="m224.978 151.212c-33.081 0-59.994 26.916-59.994 60s26.913 60 59.994 60 59.994-26.916 59.994-60-26.914-60-59.994-60zm0 90c-16.54 0-29.997-13.458-29.997-30s13.457-30 29.997-30 29.997 13.458 29.997 30-13.457 30-29.997 30z"/><path d="m119.988 196.212h-29.997c-8.283 0-14.999 6.716-14.999 15s6.715 15 14.999 15h29.997c8.283 0 14.999-6.716 14.999-15s-6.716-15-14.999-15z"/><path d="m329.967 226.212h29.997c8.283 0 14.999-6.716 14.999-15s-6.715-15-14.999-15h-29.997c-8.283 0-14.999 6.716-14.999 15s6.716 15 14.999 15z"/><path d="m497.001 331.288c8.283 0 14.999-6.716 14.999-15v-60.05c0-8.284-6.715-15-14.999-15h-47.046v-165.526c0-8.284-6.715-15-14.999-15h-419.957c-8.284 0-14.999 6.716-14.999 15v271c0 8.284 6.715 15 14.999 15h286.921v14.575c0 8.284 6.715 15 14.999 15h14.999v45c0 8.284 6.715 15 14.999 15h150.086c8.283 0 14.999-6.716 14.999-15v-60.05c0-8.284-6.715-15-14.999-15h-14.999v-29.95h14.997zm-14.998-30c-27.664-.095-70.602-.03-120.089-.05v-30h120.089zm-62.045-167.474c-21.051-5.439-37.659-22.048-43.097-43.101h43.097zm-346.864-43.102c-5.438 21.053-22.046 37.663-43.097 43.101v-43.101zm-43.097 197.899c21.051 5.439 37.659 22.048 43.097 43.101h-43.097zm73.736 43.101c-6.34-37.631-36.109-67.403-73.736-73.743v-93.514c37.627-6.34 67.396-36.112 73.736-73.743h242.49c6.34 37.631 36.109 67.403 73.736 73.743v76.782h-73.043c-8.283 0-14.999 6.716-14.999 15v45h-14.999c-8.283 0-14.999 6.716-14.999 15v15.475zm378.27 89.576h-120.089v-30c7.007-.003 87.984-.037 120.089-.05zm-29.997-60.051c-7.029.003-87.981.037-120.089.05v-30.05c12.313.005 101.833.043 120.089.05z"/></g></svg>