<svg height="512pt" viewBox="0 0 512 512" width="512pt" xmlns="http://www.w3.org/2000/svg"><path d="m154.6875 356.054688c-13.539062-7.765626-22.6875-22.355469-22.6875-39.054688 0-68.925781 56.074219-125 125-125h51.511719l2.425781-40h-291.875l20.964844 345.90625c.480468 7.917969 7.039062 14.09375 14.972656 14.09375h92.039062c-9.4375-12.542969-15.039062-28.128906-15.039062-45 0-19.449219 12.40625-36.054688 29.71875-42.324219-6.136719-9.410156-9.71875-20.628906-9.71875-32.675781 0-12.058594 3.589844-23.289062 9.738281-32.707031-4.890625-1.101563-7.605469-2.183594-7.050781-3.238281zm0 0"/><path d="m164.984375 122.003906c.011719 0 .023437-.003906.035156-.003906h149.980469c8.285156 0 15-6.714844 15-15s-6.714844-15-15-15h-122.308594l40.433594-62h51.875c8.285156 0 15-6.714844 15-15s-6.714844-15-15-15h-60c-5.070312 0-9.796875 2.558594-12.5625 6.804688l-55.5625 85.195312h-141.875c-8.285156 0-15 6.714844-15 15s6.714844 15 15 15h149.929688c.019531 0 .039062.003906.054687.003906zm0 0"/><path d="m162 317c0 8.285156 6.714844 15 15 15h320c8.285156 0 15-6.714844 15-15 0-52.382812-42.617188-95-95-95h-160c-52.382812 0-95 42.617188-95 95zm0 0"/><path d="m212 362c-16.570312 0-30 13.429688-30 30s13.429688 30 30 30h250c16.570312 0 30-13.429688 30-30s-13.429688-30-30-30zm0 0"/><path d="m497 452h-320c-8.285156 0-15 6.714844-15 15 0 24.8125 20.1875 45 45 45h260c24.8125 0 45-20.1875 45-45 0-8.285156-6.714844-15-15-15zm0 0"/></svg>