<svg height="503pt" viewBox="0 0 503.54003 503" width="503pt" xmlns="http://www.w3.org/2000/svg"><path d="m272.78125 207.835938c.171875-2.996094.324219-6.042969.375-9.335938-15.328125 4.480469-31.109375 7.226562-47.050781 8.191406-.863281.0625-1.726563.117188-2.59375.171875-2.078125.125-4.148438.246094-6.265625.320313-.386719.015625-.757813.058594-1.148438.074218v13.292969c8.511719 3.601563 17.71875 5.25 26.953125 4.820313 12.285157-.277344 23.542969-6.917969 29.730469-17.535156zm0 0"/><path d="m278.277344 129.371094c.054687.59375.03125 1.160156.082031 1.75.363281 4.425781.621094 8.886718.621094 13.40625 0 3.003906-1.503907 5.808594-4 7.472656-20.449219 12.5-43.898438 19.230469-67.859375 19.476562-23.964844-.246093-47.414063-6.976562-67.863282-19.476562-2.496093-1.664062-4-4.46875-4-7.472656 0-4.519532.257813-8.980469.621094-13.402344.050782-.59375.027344-1.160156.082032-1.753906-17.148438 6.816406-27.648438 15.761718-27.648438 24.140625 0 8.375 10.355469 17.257812 27.640625 24.089843 1.191406.476563 2.460937.90625 3.695313 1.355469 17.929687 6.0625 36.648437 9.492188 55.5625 10.171875.535156.027344 1.054687.074219 1.589843.097656 3.382813.136719 6.820313.210938 10.320313.214844 3.496094.003906 6.933594-.070312 10.316406-.214844.539062-.023437 1.054688-.070312 1.585938-.097656 18.917968-.679687 37.632812-4.105468 55.566406-10.171875 1.234375-.449219 2.503906-.878906 3.695312-1.355469 17.285156-6.832031 27.640625-15.703124 27.640625-24.089843 0-8.390625-10.5-17.324219-27.648437-24.140625zm0 0"/><path d="m171.1875 225.371094c9.234375.4375 18.449219-1.21875 26.949219-4.851563v-13.261719c-.386719-.015624-.761719-.058593-1.148438-.074218-2.113281-.074219-4.1875-.195313-6.265625-.320313-.867187-.054687-1.726562-.109375-2.59375-.171875-15.941406-.964844-31.722656-3.710937-47.050781-8.191406.050781 3.292969.203125 6.339844.375 9.335938 6.1875 10.617187 17.449219 17.261718 29.734375 17.535156zm0 0"/><path d="m207.121094 36.738281c-94.257813 0-170.667969 76.410157-170.667969 170.667969 0 94.253906 76.410156 170.664062 170.667969 170.664062 94.253906 0 170.664062-76.410156 170.664062-170.664062-.105468-94.214844-76.453125-170.5625-170.664062-170.667969zm83.996094 154.914063c.007812 1.53125.050781 3.15625.039062 4.628906 2.089844.03125 4.15625.507812 6.050781 1.394531 3.148438 1.476563 11.507813 5.390625 7.964844 35.90625-2.214844 12.34375-9.171875 23.332031-19.386719 30.613281 2.078125 18.0625-5.292968 35.917969-19.5 47.261719-6.109375 5.582031-11.5 11.90625-16.042968 18.828125-7.203126 10.238282-14.648438 20.839844-32.472657 20.839844h-21.300781c-17.824219 0-25.269531-10.601562-32.472656-20.839844-4.542969-6.917968-9.933594-13.242187-16.042969-18.824218-14.207031-11.34375-21.578125-29.203126-19.5-47.261719-10.136719-7.214844-17.074219-18.082031-19.351563-30.308594-3.578124-30.824219 4.78125-34.738281 7.929688-36.210937 1.894531-.890626 3.957031-1.371094 6.050781-1.402344-.011719-1.472656.03125-3.09375.039063-4.625-20.464844-9.613282-32.773438-22.945313-32.773438-38.140625 0-18.414063 17.742188-34.28125 48.628906-44.144531 2.316407-12.046876 5.933594-23.808594 10.785157-35.074219 2.171875-4.832031 6.363281-8.457031 11.453125-9.914063 5.09375-1.457031 10.570312-.589844 14.964844 2.359375 1.429687.957031 2.984374 2.097657 4.671874 3.335938 7.292969 6.566406 16.5 10.625 26.269532 11.578125 9.765625-.957032 18.96875-5.015625 26.261718-11.582032 1.691407-1.234374 3.246094-2.375 4.671876-3.332031 4.398437-2.953125 9.878906-3.816406 14.972656-2.359375 5.097656 1.457032 9.289062 5.085938 11.464844 9.921875 4.847656 11.265625 8.460937 23.023438 10.777343 35.066407 30.878907 9.863281 48.621094 25.730468 48.621094 44.144531 0 15.195312-12.304687 28.527343-32.773437 38.140625zm0 0"/><path d="m243.050781 243.335938c-12.386719.566406-24.722656-1.902344-35.929687-7.195313-11.210938 5.292969-23.546875 7.761719-35.933594 7.195313-18.417969-.234376-35.394531-10.007813-44.847656-25.816407-.15625 4.671875.035156 9.347657.570312 13.992188 1.679688 8.113281 6.777344 15.109375 13.980469 19.199219.59375.222656 1.164063.511718 1.691406.859374 2.675781 1.742188 4.222657 4.769532 4.074219 7.957032l-.074219 1.457031c-.699219 14.101563-1.199219 24.296875 13.230469 36.980469 7.1875 6.507812 13.53125 13.894531 18.878906 21.984375 7.050782 10.035156 9.671875 13.210937 17.777344 13.210937h21.300781c8.105469 0 10.726563-3.175781 17.777344-13.210937 5.347656-8.089844 11.691406-15.476563 18.878906-21.984375 14.429688-12.683594 13.929688-22.875 13.230469-36.980469l-.074219-1.457031c-.148437-3.1875 1.402344-6.214844 4.074219-7.957032.527344-.347656 1.097656-.636718 1.691406-.859374 7.3125-4.160157 12.4375-11.308594 14.035156-19.570313.5-4.523437.671876-9.074219.519532-13.625-9.453125 15.8125-26.433594 25.585937-44.851563 25.820313zm0 0"/><path d="m498.277344 498.5625c3.371094-3.367188 5.261718-7.9375 5.261718-12.703125 0-4.761719-1.890624-9.332031-5.261718-12.699219l-38.109375-38.109375-25.402344 25.402344 38.109375 38.109375c7.105469 6.789062 18.296875 6.789062 25.402344 0zm0 0"/><path d="m207.121094 153.511719c3.128906 0 6.1875-.148438 9.160156-.417969 15.636719-1.535156 30.8125-6.171875 44.636719-13.636719-.023438-.707031-.105469-1.390625-.140625-2.097656-.128906-2.566406-.292969-5.148437-.554688-7.765625-.140625-1.394531-.339844-2.734375-.515625-4.101562-.242187-1.929688-.496093-3.867188-.808593-5.816407-2.023438-13.046875-5.640626-25.796875-10.769532-37.964843-1.304687.78125-2.648437 1.765624-4.105468 2.835937-10.3125 8.9375-23.28125 14.234375-36.902344 15.070313-13.625-.835938-26.59375-6.132813-36.90625-15.070313-1.457032-1.070313-2.796875-2.054687-4.023438-2.875-5.183594 12.167969-8.828125 24.933594-10.851562 38.007813-.3125 1.949218-.566406 3.886718-.808594 5.820312-.171875 1.355469-.371094 2.691406-.511719 4.074219-.261719 2.628906-.425781 5.214843-.554687 7.789062-.035156.699219-.117188 1.375-.140625 2.078125 8.863281 4.757813 18.285156 8.394532 28.050781 10.820313 8.417969 2.125 17.0625 3.214843 25.746094 3.25zm0 0"/><path d="m409.355469 435.046875 25.402343-25.40625 12.707032 12.707031-25.402344 25.402344zm0 0"/><path d="m383.953125 396.941406 12.703125-12.703125 19.050781 19.054688-12.703125 12.699219zm0 0"/><path d="m374.808594 356.546875c-1.511719 1.695313-3.054688 3.355469-4.617188 5.003906-2.875 3.039063-5.828125 5.992188-8.863281 8.863281-1.664063 1.574219-3.335937 3.136719-5.046875 4.660157-1.203125 1.070312-2.324219 2.234375-3.546875 3.277343l12.164063 12.242188v-.003906l25.402343-25.40625-.019531-.023438-12.15625-12.210937c-1.058594 1.242187-2.234375 2.378906-3.316406 3.597656zm0 0"/><path d="m338.976562 366.320312c9.863282-8.199218 18.953126-17.292968 27.148438-27.164062.21875-.261719.4375-.523438.652344-.789062 69.96875-85.253907 60.742187-210.410157-20.964844-284.488282-81.710938-74.078125-207.167969-71.027344-285.179688 6.9375-78.011718 77.964844-81.136718 203.417969-7.105468 285.171875 74.027344 81.753907 199.175781 91.054688 284.476562 21.136719.324219-.265625.648438-.535156.972656-.804688zm-320.488281-158.914062c0-104.179688 84.453125-188.632812 188.632813-188.632812 104.175781 0 188.628906 84.453124 188.628906 188.632812 0 104.175781-84.453125 188.628906-188.628906 188.628906-104.128906-.117187-188.515625-84.5-188.632813-188.628906zm0 0"/></svg>