<svg height="512pt" viewBox="0 -104 512.00085 512" width="512pt" xmlns="http://www.w3.org/2000/svg"><path d="m510.296875 225.53125-34.320313-145.84375c-9.242187-39.289062-45.457031-79.6875-100.605468-79.6875h-238.738282c-40.363281 0-87.980468 26.003906-100.609374 79.6875l-34.320313 145.84375c-9.316406 39.589844 20.734375 77.570312 61.457031 77.570312 17.304688 0 33.582032-9.21875 42.476563-24.050781l26.4375-44.054687c4.519531-7.539063 12.785156-12.21875 21.574219-12.21875h204.699218c8.789063 0 17.058594 4.683594 21.578125 12.222656l26.433594 44.046875c8.898437 14.835937 25.175781 24.054687 42.5 24.054687 40.660156 0 70.761719-37.941406 61.4375-77.570312zm-318.554687-99.144531h-17.132813v17.132812c0 8.28125-6.714844 14.996094-15 14.996094-8.28125 0-14.996094-6.714844-14.996094-14.996094v-17.132812h-17.132812c-8.28125 0-14.996094-6.714844-14.996094-14.996094 0-8.285156 6.714844-15 14.996094-15h17.132812v-17.132813c0-8.28125 6.714844-14.996093 14.996094-14.996093 8.285156 0 15 6.714843 15 14.996093v17.132813h17.132813c8.28125 0 14.996093 6.714844 14.996093 15 0 8.28125-6.714843 14.996094-14.996093 14.996094zm128.515624 0c-8.277343 0-14.996093-6.71875-14.996093-14.996094 0-8.28125 6.722656-15 14.996093-15 8.28125 0 15 6.71875 15 15 0 8.277344-6.71875 14.996094-15 14.996094zm32.132813 32.128906c-8.277344 0-15-6.71875-15-14.996094 0-8.277343 6.722656-15 15-15s14.996094 6.722657 14.996094 15c0 8.277344-6.71875 14.996094-14.996094 14.996094zm0-64.257813c-8.277344 0-15-6.71875-15-15 0-8.277343 6.722656-14.996093 15-14.996093s14.996094 6.71875 14.996094 14.996093c0 8.28125-6.71875 15-14.996094 15zm32.128906 32.128907c-8.277343 0-15-6.71875-15-14.996094 0-8.28125 6.722657-15 15-15 8.277344 0 14.996094 6.71875 14.996094 15 0 8.277344-6.71875 14.996094-14.996094 14.996094zm0 0" fill-rule="evenodd"/></svg>