<svg id="Capa_1" enable-background="new 0 0 512 512" height="512" viewBox="0 0 512 512" width="512" xmlns="http://www.w3.org/2000/svg"><g><path d="m467.003 0h-44.995c-8.284 0-15 6.716-15 15v46h-392.008c-8.284 0-15 6.716-15 15v421c0 8.284 6.716 15 15 15h451.503c25.087 0 45.497-20.411 45.497-45.5v-421.5c0-24.813-20.186-45-44.997-45zm-175.826 232.526-32.352-38.635 21.494-43.249h126.688v109.967l-18.287 27.939c-4.164-5.683-5.68-12.502-13.642-14.921l-28.452-8.646c-8.657-2.631-17.664 2.954-19.156 11.878l-20.229 120.991-74.979-107.614 55.487-35.439c7.64-4.878 9.221-15.352 3.428-22.271zm175.326 249.474h-436.503v-391h377.008v29.642h-135.985c-5.694 0-10.898 3.225-13.433 8.324l-29.997 60.358c-2.652 5.336-1.894 11.737 1.932 16.306l27.693 33.071-54.264 34.657c-7.176 4.584-9.103 14.227-4.233 21.217l104.94 150.615c7.68 11.018 24.892 7.113 27.103-6.102l23.48-140.438 6.704 2.037 14.683 23.678c5.837 9.413 19.376 9.361 25.299.31l6.078-9.286v120.611c0 8.284 6.716 15 15 15h44.495c8.545 0 15.497 6.953 15.497 15.5s-6.952 15.5-15.497 15.5zm15.497-58.282c-11.929-4.335-19.376-2.106-44.992-2.718v-391h29.995c8.269 0 14.997 6.729 14.997 15z"/><path d="m130.038 238 59.943-44.95c5.428-4.07 7.448-11.277 4.927-17.576l-18.024-45.019c-2.279-5.692-7.794-9.424-13.926-9.424h-86.642c-8.284 0-15 6.716-15 15v33.942c0 3.4 1.155 6.7 3.277 9.358l44.723 56.026c5.058 6.339 14.239 7.506 20.722 2.643zm-38.722-86.968h61.489l9.977 24.917-39.099 29.32-32.367-40.547z"/><path d="m132.753 261.63c-7.862-9.829-23.657-6.15-26.363 6.146l-36.228 164.615c-3.155 14.336 14.141 24.197 24.872 14.201l96.222-89.615c5.743-5.348 6.393-14.218 1.491-20.347zm-22.949 130.211 19.136-86.951 31.689 39.615z"/></g></svg>