<?xml version="1.0" encoding="iso-8859-1"?>
<!-- Generator: Adobe Illustrator 19.0.0, SVG Export Plug-In . SVG Version: 6.00 Build 0)  -->
<svg version="1.1"  xmlns="http://www.w3.org/2000/svg" xmlns:xlink="http://www.w3.org/1999/xlink" x="0px" y="0px"
	 viewBox="0 0 512.001 512.001" style="enable-background:new 0 0 512.001 512.001;" xml:space="preserve">
<g>
	<g>
		<path d="M256,244.032l-75,49.995V421h30V316c0-8.291,6.709-15,15-15s15,6.709,15,15v105h30V316c0-8.291,6.709-15,15-15
			c8.291,0,15,6.709,15,15v105h30V294.027L256,244.032z"/>
	</g>
</g>
<g>
	<g>
		<path d="M15,451c-8.284,0-15,6.714-15,15v31c0,8.284,6.716,15,15,15h62.968l40.003-61H15z"/>
	</g>
</g>
<g>
	<g>
		<polygon points="357.968,451 154.027,451 114.024,512 397.974,512 		"/>
	</g>
</g>
<g>
	<g>
		<path d="M497,451H394.025l40.007,61H497c8.284,0,15-6.716,15-15v-31C512,457.714,505.284,451,497,451z"/>
	</g>
</g>
<g>
	<g>
		<rect x="391" y="361" width="91" height="60"/>
	</g>
</g>
<g>
	<g>
		<rect x="30" y="361" width="91" height="60"/>
	</g>
</g>
<g>
	<g>
		<path d="M482,271h-61v-45c0-8.291-6.709-15-15-15h-46.069c-6.588-45.886-43.054-81.984-88.931-88.616V91h75
			c8.291,0,15-6.709,15-15V15c0-8.291-6.709-15-15-15h-90c-8.291,0-15,6.709-15,15c0,10.686,0,101.627,0,107.384
			c-45.877,6.632-82.343,42.729-88.931,88.616H106c-8.291,0-15,6.709-15,15v45H30c-16.569,0-30,13.431-30,30
			c0,16.567,13.431,30,30,30h121v-45c0-5.01,2.505-9.697,6.68-12.48l90-60c5.039-3.369,11.602-3.369,16.641,0l90,60
			c4.175,2.783,6.68,7.471,6.68,12.48v45h121c16.569,0,30-13.433,30-30C512,284.431,498.569,271,482,271z"/>
	</g>
</g>
<g>
</g>
<g>
</g>
<g>
</g>
<g>
</g>
<g>
</g>
<g>
</g>
<g>
</g>
<g>
</g>
<g>
</g>
<g>
</g>
<g>
</g>
<g>
</g>
<g>
</g>
<g>
</g>
<g>
</g>
</svg>
