<svg id="Capa_1" enable-background="new 0 0 512 512" height="512" viewBox="0 0 512 512" width="512" xmlns="http://www.w3.org/2000/svg"><g><path d="m256 241h-180c-8.291 0-15 6.709-15 15s6.709 15 15 15h15v30h150v-30h15c8.291 0 15-6.709 15-15s-6.709-15-15-15z"/><path d="m436 121h-45v-91h15c8.291 0 15-6.709 15-15s-6.709-15-15-15h-60c-8.291 0-15 6.709-15 15s6.709 15 15 15h15v91h-45c-8.291 0-15 6.709-15 15s6.709 15 15 15h15v90h90v-90h15c8.291 0 15-6.709 15-15s-6.709-15-15-15z"/><path d="m331 376c0 3.984 1.582 7.793 4.395 10.605l25.605 25.606v84.789c0 8.291 6.709 15 15 15s15-6.709 15-15v-84.789l25.605-25.605c2.813-2.813 4.395-6.622 4.395-10.606v-105h-90z"/><path d="m256 331h-180c-8.291 0-15 6.709-15 15v151c0 8.291 6.709 15 15 15h180c8.291 0 15-6.709 15-15v-151c0-8.291-6.709-15-15-15zm-60 105h-15v15c0 8.291-6.709 15-15 15s-15-6.709-15-15v-15h-15c-8.291 0-15-6.709-15-15s6.709-15 15-15h15v-15c0-8.291 6.709-15 15-15s15 6.709 15 15v15h15c8.291 0 15 6.709 15 15s-6.709 15-15 15z"/></g></svg>