<svg height="427pt" viewBox="0 -15 427.9665 427" width="427pt" xmlns="http://www.w3.org/2000/svg"><path d="m155 140.617188h118v118h-118zm0 0"/><path d="m56.855469 211.117188c-31.398438 0-56.855469 25.457031-56.855469 56.855468 0 31.402344 25.457031 56.859375 56.855469 56.859375 3.316406 0 6 2.683594 6 6 .050781 1.566407-.539063 3.089844-1.625 4.21875-1.089844 1.128907-2.589844 1.769531-4.160157 1.78125-3.710937.023438-7.417968-.289062-11.070312-.941406v15.367187c0 22.636719 18.347656 40.984376 40.980469 40.984376 22.636719 0 40.984375-18.347657 40.984375-40.984376 0-3.289062 2.667968-5.957031 5.960937-5.957031 3.289063 0 5.957031 2.667969 5.957031 5.957031 0 14.414063-5.871093 28.207032-16.261718 38.195313 12.355468 10.019531 29.359375 12.0625 43.734375 5.257813 14.375-6.808594 23.570312-21.257813 23.644531-37.164063v-61.929687h-49c-13.25-.015626-23.984375-10.753907-24-24v-144c.015625-13.25 10.75-23.984376 24-24h49v-69.789063c-.019531-13.984375-8.753906-26.476563-21.878906-31.296875s-27.867188-.953125-36.933594 9.691406c-9.070312 10.644532-10.546875 25.8125-3.699219 38.003906 1.851563 1.117188 3.644531 2.3125 5.398438 3.613282 2.667969 1.972656 3.226562 5.730468 1.253906 8.398437-1.972656 2.664063-5.730469 3.226563-8.398437 1.253907-21.667969-15.972657-51.570313-14.558594-71.640626 3.382812-20.066406 17.941406-24.808593 47.496094-11.359374 70.816406 1.085937 1.855469 1.09375 4.148438.023437 6.011719s-3.058594 3.011719-5.207031 3.011719c-2.148438 0-4.132813-1.152344-5.203125-3.015625-.699219-1.214844-1.363281-2.453125-1.988281-3.707031-10.539063 4.605468-18.5 13.640624-21.734376 24.679687-3.238281 11.035156-1.417968 22.941406 4.964844 32.507813 2.609375 3.933593 5.914063 7.359374 9.757813 10.101562 9.988281-5.375 21.15625-8.183594 32.5-8.171875 3.3125 0 6 2.6875 6 6 0 3.316406-2.6875 6-6 6zm103.144531 100.984374c0-3.3125 2.6875-6 6-6s6 2.6875 6 6v17.515626c0 3.3125-2.6875 6-6 6s-6-2.6875-6-6zm0-242.484374c0-3.3125 2.6875-6 6-6s6 2.6875 6 6v17.515624c0 3.3125-2.6875 6-6 6s-6-2.6875-6-6zm-76 76h17.515625c3.3125 0 6 2.6875 6 6s-2.6875 6-6 6h-17.515625c-3.3125 0-6-2.6875-6-6s2.6875-6 6-6zm0 96h17.515625c3.3125 0 6 2.6875 6 6s-2.6875 6-6 6h-17.515625c-3.3125 0-6-2.6875-6-6s2.6875-6 6-6zm0 0"/><path d="m130 127.617188v144c.007812 6.625 5.375 11.992187 12 12h144c6.625-.007813 11.992188-5.375 12-12v-144c-.007812-6.625-5.375-11.992188-12-12h-144c-6.625.007812-11.992188 5.375-12 12zm13 7c0-3.3125 2.6875-6 6-6h130c3.3125 0 6 2.6875 6 6v130c0 3.3125-2.6875 6-6 6h-130c-3.3125 0-6-2.6875-6-6zm0 0"/><path d="m371.144531 199.117188c11.339844-.015626 22.511719 2.792968 32.5 8.167968 10.402344-7.449218 16.484375-19.542968 16.257813-32.339844-.222656-12.796874-6.722656-24.664062-17.382813-31.746093-1.867187-1.234375-3.839843-2.304688-5.886719-3.203125-.628906 1.253906-1.289062 2.492187-1.992187 3.707031-1.058594 1.886719-3.050781 3.054687-5.210937 3.0625-2.160157.007813-4.160157-1.148437-5.230469-3.027344-1.070313-1.875-1.050781-4.183593.054687-6.042969 13.457032-23.316406 8.71875-52.875-11.351562-70.816406-20.070313-17.945312-49.96875-19.355468-71.640625-3.382812-1.722657 1.28125-4.003907 1.546875-5.972657.691406-1.972656-.855469-3.335937-2.703125-3.574218-4.835938-.238282-2.136718.683594-4.238281 2.417968-5.507812 1.757813-1.300781 3.570313-2.5 5.421876-3.613281 6.816406-12.195313 5.324218-27.34375-3.746094-37.972657-9.066406-10.628906-23.792969-14.492187-36.910156-9.679687-13.117188 4.808594-21.851563 17.277344-21.898438 31.25v69.789063h49c13.25.015624 23.984375 10.75 24 24v144c-.015625 13.246093-10.75 23.984374-24 24h-49v61.929687c.058594 15.898437 9.242188 30.351563 23.605469 37.160156 14.367187 6.808594 31.367187 4.765625 43.710937-5.253906-10.375-9.996094-16.226562-23.789063-16.210937-38.195313.042969-3.289062 2.722656-5.933593 6.015625-5.933593 3.289062 0 5.96875 2.644531 6.011718 5.933593-.101562 14.695313 7.675782 28.3125 20.382813 35.691407 12.707031 7.375 28.394531 7.375 41.101563 0 12.707031-7.378907 20.484374-20.996094 20.382812-35.691407v-15.367187c-3.652344.652344-7.359375.964844-11.070312.941406-1.582032-.003906-3.09375-.640625-4.199219-1.769531-1.109375-1.128906-1.71875-2.652344-1.695313-4.230469.027344-3.324219 2.730469-6.003906 6.054688-6 31.402344.011719 56.867187-25.4375 56.875-56.839843.011718-31.398438-25.433594-56.863282-56.835938-56.875-3.3125-.003907-5.996094-2.695313-5.992187-6.007813.003906-3.3125 2.691406-5.996094 6.007812-5.992187zm-103.144531-111.984376c0 3.3125-2.6875 6-6 6s-6-2.6875-6-6v-17.515624c0-3.3125 2.6875-6 6-6s6 2.6875 6 6zm0 242.484376c0 3.3125-2.6875 6-6 6s-6-2.6875-6-6v-17.515626c0-3.3125 2.6875-6 6-6s6 2.6875 6 6zm76-76h-17.515625c-3.3125 0-6-2.6875-6-6s2.6875-6 6-6h17.515625c3.3125 0 6 2.6875 6 6s-2.6875 6-6 6zm0-96h-17.515625c-3.3125 0-6-2.6875-6-6s2.6875-6 6-6h17.515625c3.3125 0 6 2.6875 6 6s-2.6875 6-6 6zm0 0"/></svg>