<svg  enable-background="new 0 0 512 512" height="512" viewBox="0 0 512 512" width="512" xmlns="http://www.w3.org/2000/svg"><g><path d="m497 452h-198.58c-4.527-12.764-14.656-22.893-27.42-27.42v-34.58h75c8.284 0 15-6.716 15-15v-45h55c52.383 0 95-42.617 95-95 0-47.383-34.867-86.774-80.292-93.863 1.713-26.988-8.143-53.922-27.533-73.312-28.784-28.786-72.147-35.66-107.912-18.613-9.912-12.975-22.303-23.967-36.415-32.222-19.002-11.115-40.735-16.99-62.848-16.99-68.925 0-125 56.075-125 125 0 6.004.452 12.039 1.35 18.057-17.381 4.446-33.212 13.754-45.701 27.073-16.54 17.638-25.649 40.676-25.649 64.87 0 52.383 42.617 95 95 95h55v45c0 8.284 6.716 15 15 15h75v34.58c-12.764 4.527-22.893 14.656-27.42 27.42h-198.58c-8.284 0-15 6.716-15 15s6.716 15 15 15h198.58c6.192 17.459 22.865 30 42.42 30s36.228-12.541 42.42-30h198.58c8.284 0 15-6.716 15-15s-6.716-15-15-15zm-401-152c-35.841 0-65-29.159-65-65 0-33.924 26.521-62.366 60.376-64.75 4.512-.318 8.639-2.654 11.233-6.359s3.378-8.382 2.134-12.73c-2.483-8.683-3.743-17.485-3.743-26.161 0-52.383 42.617-95 95-95 33.353 0 64.674 17.93 81.741 46.792 2.117 3.582 5.628 6.123 9.691 7.016 4.062.892 8.315.058 11.741-2.306 25.793-17.808 60.613-14.638 82.788 7.536 16.178 16.177 22.642 40.062 16.868 62.332-1.187 4.578-.145 9.446 2.811 13.138s7.464 5.765 12.205 5.617c.553-.018 1.1-.053 1.647-.091.188-.013.377-.03.507-.035 35.841 0 65 29.159 65 65s-29.159 65-65 65h-55v-174.999c0-8.284-6.716-15-15-15h-109.999c-3.979 0-7.794 1.581-10.606 4.394l-70 70c-2.814 2.813-4.394 6.628-4.394 10.606v105zm125-138.787v18.787h-18.787zm-40 48.787h55c8.284 0 15-6.716 15-15v-55h80v220h-150zm75 272c-8.271 0-15-6.729-15-15s6.729-15 15-15 15 6.729 15 15-6.729 15-15 15z"/><path d="m226 270h60c8.284 0 15-6.716 15-15s-6.716-15-15-15h-60c-8.284 0-15 6.716-15 15s6.716 15 15 15z"/><path d="m301 315c0-8.284-6.716-15-15-15h-60c-8.284 0-15 6.716-15 15s6.716 15 15 15h60c8.284 0 15-6.716 15-15z"/></g></svg>