<?xml version="1.0" encoding="iso-8859-1"?>
<!-- Generator: Adobe Illustrator 19.0.0, SVG Export Plug-In . SVG Version: 6.00 Build 0)  -->
<svg version="1.1" id="Capa_1" xmlns="http://www.w3.org/2000/svg" xmlns:xlink="http://www.w3.org/1999/xlink" x="0px" y="0px"
	 viewBox="0 0 480.022 480.022" style="enable-background:new 0 0 480.022 480.022;" xml:space="preserve">
<g>
	<g>
		<path d="M96.022,304.007L96.022,304.007L96.022,304.007z"/>
	</g>
</g>
<g>
	<g>
		<polygon points="352.022,0.007 352.022,128.007 480.022,128.007 		"/>
	</g>
</g>
<g>
	<g>
		<path d="M159.574,460.135l-24.512-98.336c15.296-14.56,24.96-35.04,24.96-57.792c0-44.096-35.904-80-80-80s-80,35.904-80,80
			c0,22.752,9.664,43.232,24.96,57.792L0.47,460.135c-1.504,6.048,0.672,12.448,5.536,16.384c4.864,3.904,11.584,4.576,17.152,1.824
			l56.864-28.448l56.832,28.448c2.272,1.088,4.736,1.664,7.168,1.664c3.552,0,7.104-1.184,10.016-3.488
			C158.902,472.583,161.078,466.215,159.574,460.135z M80.022,352.007c-26.464,0-48-21.536-48-48s21.536-48,48-48s48,21.536,48,48
			S106.486,352.007,80.022,352.007z"/>
	</g>
</g>
<g>
	<g>
		<path d="M352.022,160.007c-17.632,0-32-14.368-32-32v-128h-192c-17.632,0-32,14.368-32,32v161.632
			c54.144,7.84,96,54.08,96,110.368c0,24.192-7.68,47.168-21.888,66.272l19.392,77.728h258.496c17.664,0,32-14.336,32-32v-256
			H352.022z M176.022,128.007c-8.832,0-16-7.168-16-16c0-8.832,7.168-16,16-16h96c8.832,0,16,7.168,16,16c0,8.832-7.168,16-16,16
			H176.022z M400.022,320.007h-160c-8.832,0-16-7.168-16-16c0-8.832,7.168-16,16-16h160c8.832,0,16,7.168,16,16
			C416.022,312.839,408.854,320.007,400.022,320.007z M400.022,224.007h-192c-8.832,0-16-7.168-16-16c0-8.832,7.168-16,16-16h192
			c8.832,0,16,7.168,16,16C416.022,216.839,408.854,224.007,400.022,224.007z"/>
	</g>
</g>
<g>
</g>
<g>
</g>
<g>
</g>
<g>
</g>
<g>
</g>
<g>
</g>
<g>
</g>
<g>
</g>
<g>
</g>
<g>
</g>
<g>
</g>
<g>
</g>
<g>
</g>
<g>
</g>
<g>
</g>
</svg>
