<svg height="512pt" viewBox="0 0 512 512.00089" width="512pt" xmlns="http://www.w3.org/2000/svg"><path d="m469.742188 0h-427.484376c-23.300781 0-42.257812 18.957031-42.257812 42.257812v.113282c0 18.050781 11.378906 33.496094 27.34375 39.535156v297.277344c0 22.335937 18.1875 40.511718 40.542969 40.511718h160.472656l-44.933594 69.128907c-4.515625 6.945312-2.546875 16.234375 4.398438 20.75 6.945312 4.515625 16.238281 2.546875 20.753906-4.398438l32.421875-49.882812v41.226562c0 8.28125 6.714844 15 15 15s15-6.71875 15-15v-41.226562l32.425781 49.878906c2.871094 4.421875 7.683594 6.828125 12.589844 6.828125 2.800781 0 5.636719-.785156 8.160156-2.425781 6.945313-4.515625 8.917969-13.808594 4.402344-20.753907l-44.9375-69.125h160.476563c22.351562 0 40.539062-18.175781 40.539062-40.515624v-297.273438c15.964844-6.039062 27.34375-21.484375 27.34375-39.535156v-.113282c0-23.300781-18.957031-42.257812-42.257812-42.257812zm-439.742188 42.257812c0-6.761718 5.5-12.257812 12.257812-12.257812h427.484376c6.761718 0 12.257812 5.496094 12.257812 12.257812v.113282c0 6.757812-5.496094 12.253906-12.257812 12.253906h-427.484376c-6.757812 0-12.257812-5.496094-12.257812-12.253906zm424.65625 336.925782c0 5.796875-4.726562 10.511718-10.539062 10.511718h-376.230469c-5.8125 0-10.542969-4.714843-10.542969-10.511718v-294.558594h397.3125zm0 0"/><path d="m106.125 307.75h26.65625c8.28125 0 15-6.714844 15-15s-6.71875-15-15-15l-26.59375.058594-.015625-13.324219h26.609375c8.28125 0 15-6.714844 15-15 0-8.28125-6.71875-15-15-15h-26.640625l-.015625-13.261719h26.65625c8.28125 0 15-6.714844 15-15s-6.71875-15-15-15h-26.65625c-16.507812 0-29.9375 13.429688-29.9375 29.9375v56.648438c0 16.507812 13.429688 29.941406 29.9375 29.941406zm0 0"/><path d="m180.621094 243.582031h18.320312c8.28125 0 15-6.714843 15-15 0-8.28125-6.71875-15-15-15h-18.320312c-8.28125 0-15 6.71875-15 15 0 8.285157 6.71875 15 15 15zm0 0"/><path d="m180.621094 285.386719h18.320312c8.28125 0 15-6.714844 15-15 0-8.28125-6.71875-15-15-15h-18.320312c-8.28125 0-15 6.71875-15 15 0 8.285156 6.71875 15 15 15zm0 0"/><path d="m247.246094 305.394531c8.285156 0 15-6.714843 15-15v-32.988281l2.441406 3.476562.363281.496094c3.125 4.089844 8.0625 6.527344 13.210938 6.527344 5.148437 0 10.089843-2.4375 13.214843-6.527344l2.804688-3.972656v32.988281c0 8.285157 6.714844 15 15 15 8.28125 0 15-6.714843 15-15v-76.046875c0-7.035156-4.480469-13.277344-11.144531-15.535156-6.660157-2.25-14.011719-.015625-18.285157 5.570312l-16.589843 23.621094-16.222657-23.121094-.367187-.5c-4.273437-5.585937-11.621094-7.824218-18.285156-5.570312-6.664063 2.257812-11.140625 8.5-11.140625 15.535156v76.046875c0 8.285157 6.71875 15 15 15zm0 0"/><path d="m390.269531 305.394531c8.285157 0 15-6.714843 15-15 0-8.28125-6.714843-15-15-15-12.691406 0-23.019531-10.328125-23.019531-23.023437 0-12.691406 10.328125-23.023438 23.019531-23.023438 8.285157 0 15-6.714844 15-15 0-8.28125-6.714843-15-15-15-29.234375 0-53.019531 23.789063-53.019531 53.023438 0 29.238281 23.785156 53.023437 53.019531 53.023437zm0 0"/><path d="m424.8125 204.136719c8.285156 0 15-6.714844 15-15v-16.527344c0-8.285156-6.714844-15-15-15-8.28125 0-15 6.714844-15 15v16.527344c0 8.285156 6.71875 15 15 15zm0 0"/></svg>