<?xml version="1.0" encoding="iso-8859-1"?>
<!-- Generator: Adobe Illustrator 19.0.0, SVG Export Plug-In . SVG Version: 6.00 Build 0)  -->
<svg version="1.1" id="Capa_1" xmlns="http://www.w3.org/2000/svg" xmlns:xlink="http://www.w3.org/1999/xlink" x="0px" y="0px"
	 viewBox="0 0 512 512" style="enable-background:new 0 0 512 512;" xml:space="preserve">
<g>
	<g>
		
			<rect x="124.859" y="219.18" transform="matrix(0.7071 -0.7071 0.7071 0.7071 -209.9551 212.9523)" width="54.439" height="281.469"/>
	</g>
</g>
<g>
	<g>
		<path d="M42.128,330.225L4.326,368.027c-5.768,5.767-5.768,15.119,0,20.887l118.759,118.759c2.884,2.884,6.664,4.326,10.443,4.326
			c3.779,0,7.56-1.443,10.443-4.326l37.803-37.803L42.128,330.225z"/>
	</g>
</g>
<g>
	<g>
		
			<rect x="332.695" y="11.358" transform="matrix(0.7071 -0.7071 0.7071 0.7071 -2.1255 299.0435)" width="54.439" height="281.459"/>
	</g>
</g>
<g>
	<g>
		<path d="M507.674,123.085L388.914,4.326c-5.767-5.767-15.119-5.767-20.887,0l-37.803,37.803L469.87,181.775l37.803-37.803
			C513.442,138.204,513.442,128.852,507.674,123.085z"/>
	</g>
</g>
<g>
	<g>
		
			<rect x="165.796" y="199.246" transform="matrix(0.7071 -0.7071 0.7071 0.7071 -106.0425 255.9983)" width="180.399" height="113.515"/>
	</g>
</g>
<g>
</g>
<g>
</g>
<g>
</g>
<g>
</g>
<g>
</g>
<g>
</g>
<g>
</g>
<g>
</g>
<g>
</g>
<g>
</g>
<g>
</g>
<g>
</g>
<g>
</g>
<g>
</g>
<g>
</g>
</svg>
