<svg  enable-background="new 0 0 512 512" height="512" viewBox="0 0 512 512" width="512" xmlns="http://www.w3.org/2000/svg"><path d="m15 512h241c41.296 0 76-34.378 76-76v-361c0-8.284-6.716-15-15-15h-76v-15c0-8.284-6.716-15-15-15h-17.57c-6.191-17.461-22.874-30-42.43-30s-36.239 12.539-42.43 30h-17.57c-8.284 0-15 6.716-15 15v15h-76c-8.284 0-15 6.716-15 15v422c0 8.284 6.716 15 15 15zm256-32.614v-28.396h28.386c-4.69 13.108-15.278 23.706-28.386 28.396zm-150-419.386h15c8.284 0 15-6.716 15-15 0-8.271 6.729-15 15-15s15 6.729 15 15c0 8.284 6.716 15 15 15h15v30h-90zm-91 30h61v15c0 8.284 6.716 15 15 15h120c8.284 0 15-6.716 15-15v-15h61v331h-46c-8.284 0-15 6.716-15 15v46h-211z"/><circle cx="196" cy="226" r="15"/><circle cx="196" cy="346" r="15"/><path d="m76 181h150c8.284 0 15-6.716 15-15s-6.716-15-15-15h-150c-8.284 0-15 6.716-15 15s6.716 15 15 15z"/><path d="m76 241h60c8.284 0 15-6.716 15-15s-6.716-15-15-15h-60c-8.284 0-15 6.716-15 15s6.716 15 15 15z"/><path d="m76 301h150c8.284 0 15-6.716 15-15s-6.716-15-15-15h-150c-8.284 0-15 6.716-15 15s6.716 15 15 15z"/><path d="m76 361h60c8.284 0 15-6.716 15-15s-6.716-15-15-15h-60c-8.284 0-15 6.716-15 15s6.716 15 15 15z"/><path d="m241 406c0-8.284-6.716-15-15-15h-150c-8.284 0-15 6.716-15 15s6.716 15 15 15h150c8.284 0 15-6.716 15-15z"/><path d="m512 90v-15c0-8.284-6.716-15-15-15h-15c-12.347 0-23.832 3.752-33.382 10.171-8.209-23.367-30.482-40.171-56.618-40.171h-15c-8.284 0-15 6.716-15 15v15c0 33.084 26.916 60 60 60v61h-45c-8.284 0-15 6.716-15 15v60c0 8.284 6.716 15 15 15h15v196c0 24.813 20.187 45 45 45s45-20.187 45-45v-196h15c8.284 0 15-6.716 15-15v-60c0-8.284-6.716-15-15-15h-45v-31c33.084 0 60-26.916 60-60zm-75 392c-8.271 0-15-6.729-15-15v-166h30v166c0 8.271-6.729 15-15 15zm45-241h-15c-8.284 0-15 6.716-15 15v15h-30v-15c0-8.284-6.716-15-15-15h-15v-30h90zm0-151c0 16.542-13.458 30-30 30 0-16.542 13.458-30 30-30zm-90-30c16.542 0 30 13.458 30 30-16.542 0-30-13.458-30-30z"/></svg>