<svg  enable-background="new 0 0 512 512" height="512" viewBox="0 0 512 512" width="512" xmlns="http://www.w3.org/2000/svg"><path d="m346 151h-180c-8.284 0-15 6.716-15 15v180c0 8.284 6.716 15 15 15h180c8.284 0 15-6.716 15-15v-180c0-8.284-6.716-15-15-15zm-105 30h30v30h-30zm90 150h-150v-150h30v45c0 8.284 6.716 15 15 15h60c8.284 0 15-6.716 15-15v-45h30z"/><path d="m497 241h-46.571c-7.306-95.591-83.838-172.123-179.429-179.429v-46.571c0-8.284-6.716-15-15-15s-15 6.716-15 15v46.571c-95.591 7.306-172.123 83.838-179.429 179.429h-46.571c-8.284 0-15 6.716-15 15s6.716 15 15 15h46.571c7.306 95.591 83.838 172.123 179.429 179.429v46.571c0 8.284 6.716 15 15 15s15-6.716 15-15v-46.571c95.591-7.306 172.123-83.838 179.429-179.429h46.571c8.284 0 15-6.716 15-15s-6.716-15-15-15zm-226 179.311v-14.311c0-8.284-6.716-15-15-15s-15 6.716-15 15v14.311c-79.035-7.157-142.154-70.276-149.311-149.311h14.311c8.284 0 15-6.716 15-15s-6.716-15-15-15h-14.311c7.157-79.035 70.276-142.154 149.311-149.311v14.311c0 8.284 6.716 15 15 15s15-6.716 15-15v-14.311c79.035 7.157 142.154 70.276 149.311 149.311h-14.311c-8.284 0-15 6.716-15 15s6.716 15 15 15h14.311c-7.157 79.035-70.276 142.154-149.311 149.311z"/><path d="m46 121c8.284 0 15-6.716 15-15v-45h45c8.284 0 15-6.716 15-15s-6.716-15-15-15h-60c-8.284 0-15 6.716-15 15v60c0 8.284 6.716 15 15 15z"/><path d="m106 451h-45v-45c0-8.284-6.716-15-15-15s-15 6.716-15 15v60c0 8.284 6.716 15 15 15h60c8.284 0 15-6.716 15-15s-6.716-15-15-15z"/><path d="m466 391c-8.284 0-15 6.716-15 15v45h-45c-8.284 0-15 6.716-15 15s6.716 15 15 15h60c8.284 0 15-6.716 15-15v-60c0-8.284-6.716-15-15-15z"/><path d="m406 61h45v45c0 8.284 6.716 15 15 15s15-6.716 15-15v-60c0-8.284-6.716-15-15-15h-60c-8.284 0-15 6.716-15 15s6.716 15 15 15z"/></svg>