<?xml version="1.0" encoding="iso-8859-1"?>
<!-- Generator: Adobe Illustrator 19.0.0, SVG Export Plug-In . SVG Version: 6.00 Build 0)  -->
<svg version="1.1" id="Capa_1" xmlns="http://www.w3.org/2000/svg" xmlns:xlink="http://www.w3.org/1999/xlink" x="0px" y="0px"
	 viewBox="0 0 512 512" style="enable-background:new 0 0 512 512;" xml:space="preserve">
<g>
	<g>
		<g>
			<path d="M501.333,192h-32.54c-2.208-24.352-11.85-46.577-26.686-64.362l23.039-23.023c4.167-4.156,4.167-10.917,0-15.083
				c-4.167-4.167-10.917-4.167-15.083,0l-23.04,23.025c-17.786-14.833-40.008-24.474-64.355-26.682v-32.54
				c0-5.896-4.771-10.667-10.667-10.667c-5.896,0-10.667,4.771-10.667,10.667v32.695c-23.965,2.173-46.072,11.581-64.035,26.848
				l-23.361-23.345c-4.167-4.167-10.917-4.167-15.083,0c-4.167,4.167-4.167,10.927,0,15.083l23.47,23.453
				c-3.898,4.777-7.578,9.79-10.783,15.255c-1.604,2.76-1.896,6.104-0.792,9.104s3.521,5.344,6.542,6.385
				c37.479,12.844,69.458,38.052,90.063,70.99c2.042,3.26,5.625,5.156,9.521,5c29.792-1.375,58.75,7.688,82.771,25.865
				c1.875,1.406,4.125,2.156,6.438,2.156c0.75,0,1.521-0.083,2.271-0.25c3.042-0.656,5.646-2.625,7.125-5.365
				c7.458-13.878,11.777-28.615,13.198-43.875h32.656c5.896,0,10.667-4.771,10.667-10.667C512,196.771,507.229,192,501.333,192z"/>
			<path d="M362.667,256c-21.313,0-41.896,6.271-59.5,18.115c-4.833,3.219-11.688,1.823-14.833-2.875
				c-3.271-4.885-1.979-11.531,2.875-14.802c6.771-4.542,14.417-8.448,24.083-12.313c3.125-1.25,5.479-3.896,6.354-7.146
				c0.854-3.25,0.146-6.719-1.938-9.365c-28.542-36.188-71.188-56.948-117.042-56.948c-60.542,0-114.625,36.302-137.771,92.479
				c-1.438,3.448-0.938,7.396,1.271,10.396c2.229,3,5.75,4.573,9.563,4.292c3.167-0.302,6.354-0.5,9.604-0.5
				C91.208,277.333,96,282.115,96,288s-4.792,10.667-10.667,10.667C38.271,298.667,0,336.948,0,384
				c0,47.052,38.271,85.333,85.333,85.333h277.333c58.813,0,106.667-47.854,106.667-106.667S421.479,256,362.667,256z"/>
		</g>
	</g>
</g>
<g>
</g>
<g>
</g>
<g>
</g>
<g>
</g>
<g>
</g>
<g>
</g>
<g>
</g>
<g>
</g>
<g>
</g>
<g>
</g>
<g>
</g>
<g>
</g>
<g>
</g>
<g>
</g>
<g>
</g>
</svg>
