<?xml version="1.0" encoding="iso-8859-1"?>
<!-- Generator: Adobe Illustrator 18.0.0, SVG Export Plug-In . SVG Version: 6.00 Build 0)  -->
<!DOCTYPE svg PUBLIC "-//W3C//DTD SVG 1.1//EN" "http://www.w3.org/Graphics/SVG/1.1/DTD/svg11.dtd">
<svg version="1.1" id="Capa_1" xmlns="http://www.w3.org/2000/svg" xmlns:xlink="http://www.w3.org/1999/xlink" x="0px" y="0px"
	 viewBox="0 0 377 377"  xml:space="preserve">
<g>
	<path  d="M340.25,193.495c0,89.88-69.7,163.48-158,169.7c-4.01,0.29-8.05,0.43-12.13,0.43
		c-34.36,0-66.34-10.19-93.09-27.71C30.64,305.525,0,253.095,0,193.495c0-2.98,0.08-5.95,0.23-8.89
		c4.3-83.47,68.75-151.02,150.83-160.17c6.26-0.7,12.62-1.06,19.06-1.06c0.52,0,1.05,0,1.57,0.01
		c63.33,0.57,118.4,35.74,147.2,87.53c2.19,3.92,4.22,7.93,6.08,12.03c6.52,14.28,11.12,29.62,13.47,45.69
		C339.63,176.745,340.25,185.045,340.25,193.495z"/>
	<path  d="M377,118.765c-2.8,12.5-8.7,23.75-16.83,32.96c-6.1,6.91-13.47,12.66-21.73,16.91
		c-6.79,3.5-14.19,5.98-22,7.26l-28.45,4.67c-63.51,10.41-109.46,66.29-107.4,130.62l1.66,52.01c-4.01,0.29-8.05,0.43-12.13,0.43
		c-34.36,0-66.34-10.19-93.09-27.71C30.64,305.525,0,253.095,0,193.495c0-2.98,0.08-5.95,0.23-8.89l1.94-3.03
		c20.71-32.35,48.45-58.84,80.6-77.93c8.07-4.79,16.42-9.12,25.01-12.95c23.01-10.27,47.71-17.01,73.3-19.74
		c2.89-0.31,5.79-0.56,8.7-0.77c0.79-0.06,1.59-0.08,2.37-0.08c11.58,0,22.45,5.91,28.7,15.78c5.16,8.17,13.68,13.63,23.25,14.92
		l74.79,10.11l10.31,1.39v0.01l11.13,1.5L377,118.765z"/>
	<path  d="M377,118.765c-2.8,12.5-8.7,23.75-16.83,32.96c-6.1,6.91-13.47,12.66-21.73,16.91
		c-6.79,3.5-14.19,5.98-22,7.26l-28.45,4.67c-63.51,10.41-109.46,66.29-107.4,130.62l1.66,52.01c-4.01,0.29-8.05,0.43-12.13,0.43
		c-34.36,0-66.34-10.19-93.09-27.71l19.49-116.5c6.63-39.66,40.87-68.79,81.09-68.98l102.58-0.49c19.04-0.08,36.1-10.72,44.78-27
		c1.78-3.32,3.21-6.88,4.23-10.63l11.13,1.5L377,118.765z"/>
	<path  d="M377,118.765c-2.8,12.5-8.7,23.75-16.83,32.96c-11.97-6.13-20.17-18.59-20.17-32.96
		c0-1.68,0.11-3.33,0.33-4.95L377,118.765z"/>
	<path  d="M235.003,132.553h-27.01c-6.393,0-11.576-5.183-11.576-11.576v0h27.01
		C229.821,120.977,235.003,126.16,235.003,132.553L235.003,132.553z"/>
	<path  d="M184,85.765l-78.32,21.5c1.84-37.54,23.05-71.42,56-89.48l8.04-4.41l13.73,69.58L184,85.765z"/>
	<path  d="M183.45,82.955c-9.03,6.32-17.98,8.01-22.45-4.19c-11-30,8.72-65.39,8.72-65.39L183.45,82.955z"/>
</g>
<g>
</g>
<g>
</g>
<g>
</g>
<g>
</g>
<g>
</g>
<g>
</g>
<g>
</g>
<g>
</g>
<g>
</g>
<g>
</g>
<g>
</g>
<g>
</g>
<g>
</g>
<g>
</g>
<g>
</g>
</svg>
