<?xml version="1.0" encoding="utf-8"?>
<!-- Svg Vector Icons : http://www.onlinewebfonts.com/icon -->
<!DOCTYPE svg PUBLIC "-//W3C//DTD SVG 1.1//EN" "http://www.w3.org/Graphics/SVG/1.1/DTD/svg11.dtd">
<svg version="1.1" xmlns="http://www.w3.org/2000/svg" xmlns:xlink="http://www.w3.org/1999/xlink" x="0px" y="0px" viewBox="0 0 1000 1000" enable-background="new 0 0 1000 1000" xml:space="preserve">
<metadata> Svg Vector Icons : http://www.onlinewebfonts.com/icon </metadata>
<g><path style=" stroke:none;fill-rule:nonzero;fill-opacity:1;"  d="M44.3,304.6c0.2-2.1,0.5-4.1,0.5-6.2c0.9-31.3,1.8-62.6,2.5-93.9c0.1-4.7,2-5.8,6.1-6.2c28.6-2.8,56.2-9.7,82.8-20.7c39.3-16.2,65.2-44.9,79.9-84.3c7.1-19.1,12.5-38.5,15.2-58.7c0.4-2.9,1.6-3.8,4.2-4.1c42.6-5.1,85.2-10.9,127.9-15.4c51.1-5.3,102.4-6.5,153.7-3.7c34.4,1.9,68.8,4.8,103.1,8.4c26.2,2.7,52.2,7.1,78.3,10.5c4.2,0.5,5.1,2.4,5.6,6c3.5,27.8,11.3,54.3,24.3,79.2c16.4,31.4,41.9,52.3,74.8,64.5c8.8,3.3,17.8,6.1,27.2,9.2c-1,1-1.8,2.1-2.8,3c-17.4,16.2-34.9,32.4-52.3,48.7c-2.1,2-3.9,2.4-6.8,1.6c-16.9-4.6-33.1-10.6-48-20c-22.3-14.1-35.9-35-45.1-59.1c-5.8-15.1-10.1-30.6-11.7-46.8c-0.4-4-2-5.4-6.1-6c-61.8-9.6-123.9-16.5-186.5-16c-33,0.3-66.1,1.9-99,4.7c-31.8,2.7-63.4,7.6-95.1,11.5c-3.6,0.4-5.1,1.6-5.6,5.4c-2.8,19.9-8.5,38.9-16.6,57.3c-13.9,31.5-38.2,51.3-69.9,62.8c-19.1,7-38.8,11.7-59.1,13.7c-1.9,0.2-3.7,0.6-6.1,1c-0.4,9.4-0.9,18.6-1.2,27.8c-1.9,58.2-2,116.3,1.7,174.4c3.3,51.2,9.2,102.1,23.2,151.7c21.9,77.9,63.8,142.2,128.6,191.2c28.5,21.5,58.2,41.1,89.5,58.2c32.6,17.8,66.1,34,99.3,50.8c1.9,1,5,1,7,0.1c54.7-24.8,108.5-51.5,159.1-83.9C664.6,797,699.3,769,727.9,734c31.1-37.9,52.2-80.8,64.2-128.3c4-15.9,6.5-32.2,9.8-48.3c0.4-1.8,1.2-3.7,2.4-5c25.2-25.2,50.5-50.3,75.8-75.4c0.3-0.3,0.7-0.5,1.8-1.1c-0.9,10.5-1.4,20.5-2.7,30.4c-3.2,26-6.2,52-10.4,77.8c-9.8,60.3-30,116.7-64.1,167.7c-23.8,35.6-53,66.3-86.1,93.4c-28.2,23.2-58.6,43.2-90,61.8c-52,30.7-106.1,57.3-161.2,82.2c-2,0.9-5.1,1.1-7,0.3c-69.9-31.8-137.4-67.9-200.7-111.5c-35.4-24.4-68.3-51.6-96.3-84.4c-28.2-33.1-50.5-69.8-67.3-109.8c-15.1-36.1-25.4-73.5-32.7-111.9c-10.7-57-15.4-114.5-17.3-172.4c-0.5-16.9-0.8-33.9-1.3-50.8c-0.1-2.2-0.5-4.4-0.7-6.6C44.3,329.6,44.3,317.1,44.3,304.6z"/><path  d="M511.8,587.4c1.6-2.7,2.4-4.8,3.8-6.2c111.6-111.2,223.3-222.3,335-333.4c10.9-10.8,23.1-13.2,34.6-6.4c2.7,1.6,5.2,3.8,7.4,6c17.6,17.4,35.2,34.9,52.7,52.3c13.8,13.8,13.8,28.8-0.1,42.7C807.7,479.3,670,616.2,532.4,753.1c-14.1,14-29,14.1-43.1,0c-78-78.1-156-156.3-234-234.4c-12.9-13-12.8-28.3,0.2-41.3c17.6-17.6,35.3-35.2,53-52.8c13.4-13.3,28.7-13.2,42.1,0.2c52,52.1,104,104.3,156,156.5C508,582.6,509.1,584.2,511.8,587.4z"/></g>
</svg>

  