<?xml version="1.0" encoding="utf-8"?>
<!-- Svg Vector Icons : http://www.onlinewebfonts.com/icon -->
<!DOCTYPE svg PUBLIC "-//W3C//DTD SVG 1.1//EN" "http://www.w3.org/Graphics/SVG/1.1/DTD/svg11.dtd">
<svg version="1.1" xmlns="http://www.w3.org/2000/svg" xmlns:xlink="http://www.w3.org/1999/xlink" x="0px" y="0px" viewBox="0 0 1000 1000" enable-background="new 0 0 1000 1000" xml:space="preserve">
<metadata> Svg Vector Icons : http://www.onlinewebfonts.com/icon </metadata>
<g><path d="M500,442.7L79.3,22.6C63.4,6.7,37.7,6.7,21.9,22.5C6.1,38.3,6.1,64,22,79.9L442.6,500L22,920.1C6,936,6.1,961.6,21.9,977.5c15.8,15.8,41.6,15.8,57.4-0.1L500,557.3l420.7,420.1c16,15.9,41.6,15.9,57.4,0.1c15.8-15.8,15.8-41.5-0.1-57.4L557.4,500L978,79.9c16-15.9,15.9-41.5,0.1-57.4c-15.8-15.8-41.6-15.8-57.4,0.1L500,442.7L500,442.7z"/></g>
</svg>