<?xml version="1.0" encoding="utf-8"?>
<!-- Generator: Adobe Illustrator 21.0.0, SVG Export Plug-In . SVG Version: 6.00 Build 0)  -->
<svg version="1.1" id="Calque_1" xmlns="http://www.w3.org/2000/svg" xmlns:xlink="http://www.w3.org/1999/xlink" x="0px" y="0px"
	 viewBox="0 0 64 64" style="enable-background:new 0 0 64 64;" xml:space="preserve">
<style type="text/css">
	
	.st1{fill:#4E79B0;}
</style>
<g>
	<path class="st0" d="M43.6,39.8c-0.3-0.3-0.3-0.7-0.1-1c0.3-0.5,0.6-1,0.8-1.5h-7.7c-2.3,2.6-5.6,4.2-9.3,4.2
		c-6.9,0-12.5-5.6-12.5-12.5s5.6-12.5,12.5-12.5c5.4,0,10,3.4,11.7,8.3h6.5c-0.5-2-1.3-3.8-2.4-5.5l0.1-0.1l2-2
		c0.3-0.3,0.3-0.8,0.1-1.1l-0.8-0.9c-1.1-1.3-2.3-2.5-3.7-3.5c-0.3-0.2-0.8-0.2-1.1,0.1l-1.7,1.7c-0.3,0.3-0.7,0.3-1,0.1
		c-1.5-0.9-3.2-1.6-5-2.1c-0.4-0.1-0.6-0.4-0.6-0.8V8.3c0-0.4-0.3-0.8-0.7-0.8l-1.2-0.1c-0.6-0.1-1.3-0.1-2-0.1c-0.1,0-0.2,0-0.3,0
		c-1,0-2,0.1-2.9,0.2c-0.4,0.1-0.7,0.4-0.7,0.8v2.3c0,0.4-0.3,0.7-0.6,0.8c-1.8,0.4-3.5,1.2-5,2.1c-0.3,0.2-0.7,0.1-1-0.1l-1.7-1.7
		c-0.3-0.3-0.7-0.3-1.1-0.1c-1.7,1.3-3.2,2.8-4.5,4.5c-0.2,0.3-0.2,0.8,0.1,1.1l2,2l0.1,0.1c-1.1,1.7-1.9,3.5-2.4,5.5
		c-0.1,0.4-0.4,0.6-0.8,0.6H6.6c-0.4,0-0.8,0.3-0.8,0.7c-0.1,1-0.2,2.1-0.2,3.2s0.1,2.1,0.2,3.2c0.1,0.4,0.4,0.7,0.8,0.7h2.3
		c0.4,0,0.7,0.3,0.8,0.6c0.5,2,1.3,3.9,2.4,5.5l0,0c0,0,0,0,0,0l-11,10.7c-1.5,1.5-1.5,3.9,0,5.4C2.6,57,5,57,6.4,55.5l10.9-10.9
		c0.1,0.1,0.2,0.2,0.3,0.2l0,0c1.7,1.1,3.6,1.9,5.5,2.4c0.4,0.1,0.6,0.4,0.6,0.8v2.3c0,0.4,0.3,0.8,0.7,0.8c1,0.1,1.9,0.2,2.9,0.2
		c0.1,0,0.2,0,0.3,0c1.1,0,2.1-0.1,3.2-0.2c0.4-0.1,0.7-0.4,0.7-0.8v-2.3c0-0.4,0.3-0.7,0.6-0.8c2-0.5,3.9-1.3,5.5-2.4l0,0l2.1,2.1
		c0.3,0.3,0.7,0.3,1.1,0.1c0.6-0.4,1.2-0.9,1.7-1.4c1-0.9,2-2,2.8-3.1c0.2-0.3,0.2-0.8-0.1-1.1L43.6,39.8z"/>
	<g>
		<path class="st0" d="M19.4,34.1l1.6-6.6h1.6l1.6,6.6H23l-0.3-1.4h-1.7l-0.4,1.4H19.4z M21.2,31.6h1.2l-0.6-2.7h0L21.2,31.6z"/>
		<path class="st0" d="M25,34.1v-6.6h1.8c1.6,0,2.3,0.7,2.3,2c0,1.2-0.8,2-2.3,2h-0.6v2.6H25z M26.2,30.4h0.7c0.6,0,0.9-0.3,0.9-0.9
			c0-0.6-0.3-0.9-0.9-0.9h-0.7V30.4z"/>
		<path class="st0" d="M30,34.1v-6.6h1.3v6.6H30z"/>
		<path class="st0" d="M35.3,29.3c-0.2-0.6-0.5-0.9-0.9-0.9c-0.4,0-0.7,0.3-0.7,0.7c0,1,2.8,1.1,2.8,3.1c0,1.1-0.8,1.9-2.1,1.9
			c-1,0-1.8-0.6-2.2-1.9l1.2-0.3c0.1,0.8,0.6,1.1,1,1.1c0.4,0,0.8-0.3,0.8-0.8c0-1.2-2.8-1.3-2.8-3.1c0-1.1,0.7-1.8,2-1.8
			c1.1,0,1.8,0.7,2,1.6L35.3,29.3z"/>
		<path class="st1" d="M37.6,34.1v-6.6h3.3v1.1h-2v1.5h1.6v1.1h-1.6v2.8H37.6z"/>
		<path class="st1" d="M41.7,28.3v-1h1.1v1H41.7z M42.9,29.1v5h-1.1v-5H42.9z"/>
		<path class="st1" d="M44.1,34.1v-5h1.1v0.6c0.4-0.4,0.8-0.7,1.3-0.7c0.7,0,1.1,0.4,1.1,1.3v3.8h-1.1v-3.6c0-0.3-0.1-0.5-0.4-0.5
			c-0.2,0-0.5,0.2-0.7,0.4v3.7H44.1z"/>
		<path class="st1" d="M51.1,34.1v-0.6h0c-0.2,0.3-0.7,0.7-1.2,0.7c-0.9,0-1.3-0.7-1.3-2V31c0-1.3,0.4-2,1.3-2
			c0.3,0,0.6,0.1,1.1,0.5v-2.1h1.1v6.6H51.1z M51,30.3c-0.2-0.2-0.4-0.4-0.7-0.4c-0.3,0-0.6,0.2-0.6,1.2v1.1c0,1,0.3,1.2,0.6,1.2
			c0.3,0,0.5-0.1,0.7-0.4V30.3z"/>
		<path class="st1" d="M54.3,31.9v0.7c0,0.5,0.3,0.7,0.7,0.7c0.5,0,0.7-0.3,0.7-0.7h1.1c-0.1,1-0.7,1.6-1.8,1.6
			c-1.1,0-1.8-0.7-1.8-1.8v-1.6c0-1.1,0.7-1.8,1.8-1.8c1.1,0,1.8,0.7,1.8,1.7v1.2H54.3z M55.6,31v-0.3c0-0.4-0.2-0.7-0.7-0.7
			s-0.7,0.3-0.7,0.7V31H55.6z"/>
		<path class="st1" d="M57.8,34.1v-5h1.1v0.7h0c0.3-0.5,0.6-0.7,1.2-0.7v1.2c-0.2-0.1-0.4-0.1-0.6-0.1c-0.4,0-0.6,0.3-0.6,0.5v3.4
			H57.8z"/>
		<path class="st1" d="M63,30.7c-0.2-0.5-0.4-0.7-0.8-0.7c-0.3,0-0.5,0.2-0.5,0.4c0,0.8,2.2,0.8,2.2,2.3c0,1-0.7,1.5-1.7,1.5
			c-0.7,0-1.3-0.2-1.9-1.4l1-0.3c0.1,0.5,0.4,0.8,0.8,0.8c0.3,0,0.6-0.2,0.6-0.4c0-0.9-2.2-0.7-2.2-2.4c0-0.9,0.8-1.4,1.6-1.4
			c0.9,0,1.4,0.5,1.7,1.2L63,30.7z"/>
	</g>
</g>
</svg>
